<svg width="456" height="414" viewBox="0 0 456 414" fill="none" xmlns="http://www.w3.org/2000/svg">
<g opacity="0.13">
<path d="M0.625401 250.597C3.2618 114.219 146.051 15.1502 303.724 1.93415C342.117 -1.27136 407.074 -2.17124 455.151 12.8786L409.661 96.8007C377.908 88.7213 340.419 86.4205 303.048 88.0598C142.218 93.6244 41.0032 187.99 38.7462 283.401C37.5593 334.067 62.0214 382.86 110.59 411.077L107.419 413.786C36.927 378.706 -0.809539 323.512 0.625401 250.597Z" fill="url(#paint0_linear_49_446)"/>
<path d="M75.4786 282.614C91.4283 202.977 180.127 142.145 319.506 149.417C338.807 150.434 360.72 152.326 380.279 156.611L339.989 230.902C327.449 229.18 307.871 225.693 291.065 224.788C181.256 219.043 113.692 264.475 102.485 322.408C96.4676 353.514 109.222 388.274 141.048 410.129L137.857 412.58C83.3586 382.422 65.7064 331.299 75.4786 282.614Z" fill="url(#paint1_linear_49_446)"/>
<path d="M141.3 322.938C167.975 278.08 248.366 263.555 320.142 280.989L299.099 319.562C242.042 306.433 175.986 315.349 157.055 348.241C146.762 366.141 152.502 390.74 164.127 408.1L161.997 410.245C135.161 386.24 125.399 349.7 141.3 322.938Z" fill="url(#paint2_linear_49_446)"/>
</g>
<defs>
<linearGradient id="paint0_linear_49_446" x1="0.585937" y1="182.218" x2="455.472" y2="189.954" gradientUnits="userSpaceOnUse">
<stop stop-color="#8850F4"/>
<stop offset="1" stop-color="#6959FC"/>
</linearGradient>
<linearGradient id="paint1_linear_49_446" x1="72.918" y1="264.975" x2="380.485" y2="270.524" gradientUnits="userSpaceOnUse">
<stop stop-color="#8850F4"/>
<stop offset="1" stop-color="#6959FC"/>
</linearGradient>
<linearGradient id="paint2_linear_49_446" x1="133.633" y1="333.899" x2="320.244" y2="337.848" gradientUnits="userSpaceOnUse">
<stop stop-color="#8850F4"/>
<stop offset="1" stop-color="#6959FC"/>
</linearGradient>
</defs>
</svg>
