<svg width="137" height="40" viewBox="0 0 137 40" fill="none" xmlns="http://www.w3.org/2000/svg">
<path d="M0.00381486 24.2248C0.258671 11.0414 14.0618 1.46454 29.3038 0.186971C33.0152 -0.1229 39.2944 -0.20989 43.942 1.24495L39.5446 9.35756C36.475 8.57653 32.8511 8.35412 29.2384 8.51258C13.6913 9.05051 3.90706 18.1727 3.68888 27.3959C3.57415 32.2937 5.93886 37.0104 10.6339 39.7381L10.3274 40C3.51302 36.6088 -0.134898 31.2733 0.00381486 24.2248Z" fill="url(#paint0_linear_23_6)"/>
<path d="M7.23972 27.3198C8.78155 19.6214 17.3559 13.7409 30.8294 14.4439C32.6952 14.5422 34.8135 14.7251 36.7043 15.1393L32.8095 22.3209C31.5973 22.1545 29.7047 21.8173 28.0801 21.7299C17.465 21.1745 10.9337 25.5663 9.85035 31.1666C9.26869 34.1736 10.5016 37.5337 13.5782 39.6464L13.2697 39.8834C8.00147 36.9681 6.29506 32.0261 7.23972 27.3198Z" fill="url(#paint1_linear_23_6)"/>
<path d="M13.6025 31.2178C16.1811 26.8815 23.9523 25.4774 30.8908 27.1627L28.8567 30.8915C23.3411 29.6224 16.9556 30.4843 15.1255 33.6639C14.1305 35.3943 14.6854 37.7721 15.8092 39.4503L15.6032 39.6577C13.0091 37.3372 12.0653 33.8049 13.6025 31.2178Z" fill="url(#paint2_linear_23_6)"/>
<path d="M66.9145 11.9517H63.9113C63.7463 8.28845 60.7102 7.13338 58.037 7.13338C56.0239 7.13338 52.6247 7.69441 52.6247 11.2916C52.6247 13.3047 54.0438 13.9648 55.4299 14.2948L62.1952 15.8459C65.2644 16.5719 67.5746 18.42 67.5746 22.1822C67.5746 27.7926 62.3603 29.3437 58.301 29.3437C53.9118 29.3437 52.1957 28.0236 51.1396 27.0665C49.1265 25.2514 48.7305 23.2713 48.7305 21.0602H51.7336C51.7336 25.3504 55.2318 26.6045 58.268 26.6045C60.5781 26.6045 64.4724 26.0105 64.4724 22.6113C64.4724 20.1361 63.3173 19.3441 59.4231 18.42L54.5718 17.298C53.0207 16.9349 49.5225 15.8459 49.5225 11.7206C49.5225 8.02443 51.9317 4.39423 57.674 4.39423C65.9575 4.39423 66.7825 9.34451 66.9145 11.9517ZM85.2636 28.7166H82.5244V26.2085L82.4584 26.1425C81.2373 28.1556 79.7523 29.2117 76.9801 29.2117C74.4389 29.2117 71.3698 27.9906 71.3698 23.8653V11.4566H74.2739V22.9083C74.2739 25.7465 75.726 26.7035 77.6071 26.7035C81.2703 26.7035 82.3594 23.4693 82.3594 20.9612V11.4566H85.2636V28.7166ZM92.161 20.8952C92.161 25.4824 95.0321 26.7035 96.8802 26.7035C100.048 26.7035 101.534 23.8323 101.534 20.0371C101.534 17.826 101.302 13.5688 96.8142 13.5688C92.623 13.5688 92.161 18.09 92.161 20.8952ZM89.3888 35.548V11.4566H92.128V13.8988H92.194C92.887 12.9087 94.2071 10.9616 97.3423 10.9616C101.93 10.9616 104.537 14.7238 104.537 19.5751C104.537 23.7003 102.821 29.2117 96.9462 29.2117C94.6361 29.2117 93.118 28.1226 92.359 26.9015H92.293V35.548H89.3888ZM110.51 20.8952C110.51 25.4824 113.381 26.7035 115.229 26.7035C118.397 26.7035 119.883 23.8323 119.883 20.0371C119.883 17.826 119.652 13.5688 115.163 13.5688C110.972 13.5688 110.51 18.09 110.51 20.8952ZM107.738 35.548V11.4566H110.477V13.8988H110.543C111.236 12.9087 112.556 10.9616 115.691 10.9616C120.279 10.9616 122.886 14.7238 122.886 19.5751C122.886 23.7003 121.17 29.2117 115.295 29.2117C112.985 29.2117 111.467 28.1226 110.708 26.9015H110.642V35.548H107.738ZM129.288 5.02126V28.7166H126.384V5.02126H129.288ZM136.615 11.4566V28.7166H133.71V11.4566H136.615ZM136.615 8.32145H133.71V5.02126H136.615V8.32145Z" fill="#2B2A35"/>
<defs>
<linearGradient id="paint0_linear_23_6" x1="-2.88202e-08" y1="17.6147" x2="43.973" y2="18.3625" gradientUnits="userSpaceOnUse">
<stop stop-color="#8850F4"/>
<stop offset="1" stop-color="#6959FC"/>
</linearGradient>
<linearGradient id="paint1_linear_23_6" x1="6.99219" y1="25.6147" x2="36.7241" y2="26.1511" gradientUnits="userSpaceOnUse">
<stop stop-color="#8850F4"/>
<stop offset="1" stop-color="#6959FC"/>
</linearGradient>
<linearGradient id="paint2_linear_23_6" x1="12.8613" y1="32.2774" x2="30.9007" y2="32.6592" gradientUnits="userSpaceOnUse">
<stop stop-color="#8850F4"/>
<stop offset="1" stop-color="#6959FC"/>
</linearGradient>
</defs>
</svg>
