<svg width="71" height="64" viewBox="0 0 71 64" fill="none" xmlns="http://www.w3.org/2000/svg">
<path d="M0.316651 38.7597C0.72442 17.6662 22.8094 2.34327 47.1966 0.299154C53.1349 -0.19664 63.1816 -0.335823 70.6178 1.99192L63.5819 14.9721C58.6706 13.7224 52.8723 13.3666 47.092 13.6201C22.2166 14.4808 6.56185 29.0763 6.21276 43.8335C6.02919 51.6699 9.81272 59.2166 17.3249 63.5809L16.8343 64C5.93138 58.5741 0.0947096 50.0373 0.316651 38.7597Z" fill="url(#paint0_linear_26_80)"/>
<path d="M11.8941 43.7115C14.361 31.3941 28.08 21.9853 49.6376 23.1101C52.6229 23.2673 56.0122 23.56 59.0374 24.2228L52.8057 35.7133C50.8662 35.447 47.838 34.9076 45.2387 34.7676C28.2545 33.8791 17.8045 40.906 16.0711 49.8664C15.1405 54.6776 17.1131 60.0539 22.0357 63.4341L21.5421 63.8133C13.1129 59.1488 10.3826 51.2417 11.8941 43.7115Z" fill="url(#paint1_linear_26_80)"/>
<path d="M22.0725 49.9483C26.1984 43.0102 38.6324 40.7637 49.7339 43.4601L46.4793 49.4262C37.6543 47.3956 27.4375 48.7747 24.5094 53.862C22.9174 56.6307 23.8052 60.4352 25.6033 63.1204L25.2738 63.4521C21.1231 59.7393 19.6131 54.0877 22.0725 49.9483Z" fill="url(#paint2_linear_26_80)"/>
<defs>
<linearGradient id="paint0_linear_26_80" x1="0.310547" y1="28.1835" x2="70.6673" y2="29.3801" gradientUnits="userSpaceOnUse">
<stop stop-color="#8850F4"/>
<stop offset="1" stop-color="#6959FC"/>
</linearGradient>
<linearGradient id="paint1_linear_26_80" x1="11.498" y1="40.9834" x2="59.0692" y2="41.8416" gradientUnits="userSpaceOnUse">
<stop stop-color="#8850F4"/>
<stop offset="1" stop-color="#6959FC"/>
</linearGradient>
<linearGradient id="paint2_linear_26_80" x1="20.8867" y1="51.6437" x2="49.7497" y2="52.2546" gradientUnits="userSpaceOnUse">
<stop stop-color="#8850F4"/>
<stop offset="1" stop-color="#6959FC"/>
</linearGradient>
</defs>
</svg>
