<svg width="272" height="225" viewBox="0 0 272 225" fill="none" xmlns="http://www.w3.org/2000/svg">
<path d="M184.634 57.3058C184.556 57.3058 184.486 57.2884 184.416 57.2449L111.284 15.0388C109.768 14.1593 107.878 14.1593 106.362 15.0388L86.5957 26.4458C86.3867 26.559 86.1253 26.4981 86.0034 26.2891C85.8814 26.0801 85.9511 25.8189 86.1602 25.697L105.926 14.2899C107.712 13.2624 109.934 13.2624 111.719 14.2899L184.852 56.496C185.061 56.6179 185.131 56.8792 185.009 57.0881C184.93 57.2275 184.782 57.3058 184.634 57.3058Z" fill="#E8975B"/>
<g clip-path="url(#clip0_82_13247)">
<path d="M35.3912 69.0115L22.5801 61.7031L35.0087 54.9479L37.0058 58.1832L35.3912 69.0115Z" fill="#983BE9"/>
<path d="M93.3115 17.3885L80.5801 10.1222C80.5801 10.1222 81.0581 17.3727 81.0581 17.3885C81.0581 17.4043 88.3719 19.6332 88.3719 19.6332L93.3115 17.3885Z" fill="#B45EF4"/>
<path d="M28.342 42.7135C29.3087 42.1602 30.2382 41.8336 31.0986 41.7018C32.384 35.0099 37.0739 27.9016 42.6721 24.6979C44.3558 23.7336 45.9546 23.2173 47.4099 23.1066C48.1747 14.9972 53.8579 5.776 60.7627 1.82405C64.3639 -0.246767 67.6357 -0.489153 70.0524 0.775469V0.7702L70.1692 0.838701C70.233 0.870316 70.2914 0.907201 70.3551 0.944086L82.6935 7.99436L80.1971 9.94925C82.4385 10.9188 83.8514 13.4112 83.8514 17.0944C83.8514 23.8865 79.0446 32.1434 73.117 35.5421L28.342 61.1876C23.8857 63.7273 20.2793 61.6618 20.2793 56.5611C20.2793 51.4605 23.8857 45.2586 28.342 42.7135Z" fill="#983BE9"/>
<path d="M83.4795 14.0952L61.416 1.45954C64.7622 -0.268778 67.7844 -0.416317 70.047 0.774536V0.769266L70.1639 0.837767C70.2276 0.869382 70.286 0.906267 70.3498 0.943152L82.6881 7.99342L80.1918 9.94832C81.7587 10.6228 82.9218 12.0455 83.4795 14.0952Z" fill="#B45EF4"/>
<path d="M51.6579 43.4767L34.2578 33.5072C36.4142 29.8082 39.3833 26.5729 42.6711 24.6917C43.1066 24.4441 43.5368 24.2228 43.9564 24.0331L64.7771 35.9574L51.6579 43.4767Z" fill="#B45EF4"/>
<path d="M79.1516 8.80492L73.5481 12.0139L58.4531 3.36704C59.202 2.78743 59.9722 2.26577 60.7583 1.81788C62.0011 1.10653 63.2015 0.61649 64.3435 0.321411L79.1516 8.80492Z" fill="#C285F9"/>
<path d="M35.6455 31.3522L50.5121 39.8673L47.0225 43.7297L33.0801 35.7467C33.7971 34.2134 34.6629 32.738 35.6455 31.3522Z" fill="#C285F9"/>
<path d="M41.0515 49.9684C42.0182 49.4151 42.9477 49.0884 43.8081 48.9567C45.0935 42.2647 49.7835 35.1565 55.3817 31.9528C57.0654 30.9885 58.6641 30.4721 60.1194 30.3615C60.8843 22.2521 66.5675 13.0309 73.4723 9.07891C80.8976 4.82662 86.9154 8.27271 86.9154 16.7773C86.9154 17.0671 86.9048 17.3569 86.8942 17.6467C92.3224 15.1491 96.5662 17.9629 96.5662 24.344C96.5662 31.136 91.7594 39.393 85.8319 42.7916L41.0568 68.4371C36.6059 70.9875 32.9941 68.9219 32.9941 63.8213C32.9941 58.7154 36.6006 52.5134 41.0515 49.9684Z" fill="#C285F9"/>
<path d="M87.8409 19.6702L84.4735 21.2193L84.6435 17.5414C84.6541 17.2832 84.6647 17.025 84.6647 16.7721C84.6647 13.4893 83.6662 11.1129 81.855 10.0696C80.0438 9.03152 77.4625 9.36349 74.5996 11.0022C68.4384 14.5326 63.0633 23.1215 62.3622 30.5617L62.1869 32.4376L60.296 32.5799C59.1328 32.6694 57.8581 33.1068 56.5143 33.8761C51.6172 36.6846 47.2034 43.1974 46.019 49.373L45.7216 50.9169L44.1547 51.1593C43.5333 51.2541 42.864 51.507 42.1789 51.9022C38.4184 54.0574 35.2422 59.511 35.2422 63.8213C35.2422 65.4337 35.6937 66.614 36.4797 67.0672C37.2658 67.515 38.5246 67.3148 39.9268 66.5086L84.7019 40.8631C89.9124 37.8807 94.3102 30.3193 94.3102 24.3493C94.3102 22.0097 93.6144 20.2234 92.3981 19.4541C91.8988 19.138 91.2933 18.9799 90.6135 18.9799C89.7902 18.9746 88.8501 19.2065 87.8409 19.6702Z" fill="#721BD5"/>
<path d="M64.5812 42.465C64.5812 43.1763 64.082 44.0352 63.4605 44.3882C62.8391 44.7413 62.3398 44.4567 62.3398 43.7454C62.3398 43.034 62.8391 42.1752 63.4605 41.8221C64.082 41.4691 64.5812 41.7589 64.5812 42.465Z" fill="#FF2C9C"/>
<path d="M68.1887 40.3994C68.1887 41.1108 67.6894 41.9697 67.068 42.3227C66.4465 42.6757 65.9473 42.3912 65.9473 41.6798C65.9473 40.9685 66.4465 40.1096 67.068 39.7566C67.6894 39.4035 68.1887 39.6933 68.1887 40.3994Z" fill="#FF2C9C"/>
<path d="M71.7941 38.3339C71.7941 39.0452 71.2949 39.9041 70.6734 40.2571C70.052 40.6102 69.5527 40.3256 69.5527 39.6143C69.5527 38.9029 70.052 38.044 70.6734 37.691C71.2949 37.338 71.7941 37.6278 71.7941 38.3339Z" fill="#FF2C9C"/>
</g>
<g clip-path="url(#clip1_82_13247)">
<path d="M195.433 104.834C195.354 104.834 195.285 104.817 195.215 104.773L122.083 62.567C120.567 61.6875 118.677 61.6875 117.161 62.567L97.3946 73.974C97.1855 74.0872 96.9242 74.0263 96.8022 73.8173C96.6802 73.6083 96.7499 73.3471 96.959 73.2252L116.725 61.8181C118.511 60.7906 120.732 60.7906 122.518 61.8181L195.651 104.024C195.86 104.146 195.929 104.407 195.807 104.616C195.729 104.756 195.581 104.834 195.433 104.834Z" fill="#E8975B"/>
<path opacity="0.1" d="M35.6648 148.155L1.13277 128.205C-0.548535 127.239 -0.33075 125.541 1.60318 124.426L75.5021 81.7761C77.4361 80.6615 80.3718 80.5396 82.0531 81.5061L116.585 101.455C118.266 102.422 118.049 104.12 116.115 105.235L42.2158 147.885C40.2732 148.999 37.3461 149.121 35.6648 148.155Z" fill="#020230"/>
<path d="M114.808 86.8701L114.852 86.9223L82.1838 68.0441C80.5199 67.0862 77.6103 67.1994 75.6851 68.314L2.47435 110.555L0.0351562 109.623L0.723358 113.045C0.810472 113.559 1.17635 114.038 1.821 114.412L35.5429 133.892C37.2068 134.849 40.1164 134.736 42.0416 133.622L115.418 91.2762C116.324 90.7537 116.847 90.1093 116.977 89.465V89.4737L117.674 86.1386L114.808 86.8701Z" fill="url(#paint0_radial_82_13247)"/>
<path d="M35.6648 130.879L1.13277 110.929C-0.548535 109.963 -0.33075 108.265 1.60318 107.15L75.5021 64.5001C77.4361 63.3855 80.3718 63.2636 82.0531 64.2301L116.585 84.1794C118.266 85.146 118.049 86.844 116.115 87.9585L42.2158 130.609C40.2732 131.723 37.3461 131.845 35.6648 130.879Z" fill="url(#paint1_radial_82_13247)"/>
<path d="M35.7083 128.65L3.89417 110.276C2.25643 109.327 2.45679 107.673 4.35588 106.584L75.5282 65.5014C77.4185 64.4043 80.2846 64.2911 81.9223 65.2402L113.989 83.7614C115.627 84.7106 115.426 86.365 113.527 87.4535L42.1024 128.388C40.2121 129.477 37.346 129.599 35.7083 128.65Z" fill="url(#paint2_radial_82_13247)"/>
<path opacity="0.4" d="M38.443 124.923L10.3835 108.718C8.93743 107.882 9.12037 106.428 10.793 105.461L73.5762 69.2196C75.2487 68.2531 77.7751 68.1486 79.2212 68.9845L107.516 85.3201C108.962 86.1561 108.779 87.6103 107.106 88.5768L44.0967 124.688C42.4241 125.654 39.8891 125.759 38.443 124.923Z" fill="#06033E"/>
<path d="M116.115 87.0616L42.2165 129.712C40.2826 130.826 37.3468 130.948 35.6655 129.982L1.13348 110.032C0.558527 109.702 0.227493 109.284 0.0881101 108.84C-0.138387 109.614 0.192647 110.381 1.13348 110.929L35.6655 130.879C37.3468 131.845 40.2739 131.723 42.2165 130.609L116.115 87.9585C117.396 87.2183 117.901 86.2344 117.631 85.3723C117.457 85.9731 116.96 86.574 116.115 87.0616Z" fill="white"/>
<path opacity="0.1" d="M166.022 224.399L59.4637 162.897C57.9131 162 58.1047 160.433 59.8993 159.396L128.293 119.924C130.087 118.888 132.796 118.775 134.356 119.672L240.914 181.166C242.464 182.062 242.273 183.63 240.478 184.666L172.085 224.138C170.29 225.183 167.572 225.296 166.022 224.399Z" fill="#020230"/>
<path d="M269.218 78.084L163.078 16.8255C162.346 16.4075 161.588 16.3205 160.909 16.512H160.9L158.931 17.1999L159.619 17.3654C159.341 17.6963 159.114 18.0968 158.975 18.5758L134.975 96.4746C134.383 98.4077 135.254 100.75 136.918 101.717L243.057 162.966C243.319 163.115 243.58 163.219 243.841 163.289L243.58 163.863L245.462 163.202H245.453C246.22 162.897 246.856 162.209 247.161 161.216L271.16 83.3173C271.753 81.3929 270.882 79.0419 269.218 78.084Z" fill="url(#paint3_radial_82_13247)"/>
<path d="M239.259 165.884L239.293 165.927L134.452 105.426C132.91 104.538 130.218 104.651 128.432 105.679L60.7094 144.767L58.4531 143.905L59.0891 147.075C59.1762 147.554 59.5072 147.998 60.1083 148.346L165.917 209.405C167.459 210.293 170.151 210.18 171.937 209.152L239.842 169.959C240.679 169.471 241.158 168.879 241.28 168.278V168.287L241.924 165.204L239.259 165.884Z" fill="url(#paint4_radial_82_13247)"/>
<path d="M166.022 206.618L59.4637 145.116C57.9131 144.219 58.1047 142.651 59.8993 141.615L128.293 102.143C130.087 101.107 132.796 100.994 134.356 101.891L240.914 163.384C242.464 164.281 242.273 165.849 240.478 166.885L172.085 206.357C170.29 207.402 167.572 207.515 166.022 206.618Z" fill="url(#paint5_radial_82_13247)"/>
<path d="M240.47 166.066L172.076 205.538C170.282 206.575 167.573 206.688 166.013 205.791L59.4639 144.288C58.9325 143.984 58.6276 143.601 58.4969 143.183C58.2879 143.897 58.5928 144.611 59.4639 145.116L166.022 206.609C167.573 207.506 170.291 207.393 172.085 206.357L240.478 166.885C241.663 166.206 242.134 165.291 241.881 164.49C241.715 165.056 241.254 165.614 240.47 166.066Z" fill="white"/>
<g opacity="0.4">
<path opacity="0.4" d="M110.287 135.137L106.689 133.064C106.401 132.899 106.436 132.603 106.767 132.411L111.01 129.964C111.341 129.773 111.846 129.747 112.133 129.921L115.731 131.993C116.019 132.159 115.984 132.455 115.653 132.646L111.41 135.093C111.079 135.285 110.574 135.302 110.287 135.137Z" fill="#06033E"/>
<path opacity="0.4" d="M115.845 138.35L112.247 136.277C111.96 136.112 111.995 135.816 112.326 135.624L116.568 133.177C116.899 132.986 117.405 132.96 117.692 133.134L121.29 135.206C121.577 135.372 121.543 135.668 121.211 135.859L116.969 138.306C116.638 138.489 116.133 138.515 115.845 138.35Z" fill="#06033E"/>
<path opacity="0.4" d="M121.402 141.554L117.804 139.482C117.517 139.316 117.551 139.02 117.882 138.829L122.125 136.382C122.456 136.19 122.961 136.164 123.249 136.338L126.847 138.411C127.134 138.576 127.099 138.872 126.768 139.064L122.526 141.511C122.195 141.702 121.689 141.72 121.402 141.554Z" fill="#06033E"/>
<path opacity="0.4" d="M129.085 138.907L125.488 136.835C125.2 136.669 125.235 136.373 125.566 136.182L129.129 134.127C129.46 133.935 129.965 133.909 130.253 134.083L133.851 136.155C134.138 136.321 134.103 136.617 133.772 136.809L130.209 138.864C129.878 139.046 129.373 139.073 129.085 138.907Z" fill="#06033E"/>
<path opacity="0.4" d="M134.644 142.112L131.046 140.039C130.759 139.874 130.794 139.578 131.125 139.386L134.688 137.331C135.019 137.139 135.524 137.113 135.811 137.288L139.409 139.36C139.697 139.525 139.662 139.821 139.331 140.013L135.768 142.068C135.437 142.26 134.932 142.277 134.644 142.112Z" fill="#06033E"/>
<path opacity="0.4" d="M140.193 145.316L136.595 143.244C136.308 143.078 136.342 142.782 136.673 142.591L140.236 140.536C140.567 140.344 141.073 140.318 141.36 140.492L144.958 142.564C145.246 142.73 145.211 143.026 144.88 143.217L141.317 145.272C140.986 145.464 140.489 145.481 140.193 145.316Z" fill="#06033E"/>
<path opacity="0.4" d="M145.751 148.52L142.154 146.448C141.866 146.283 141.901 145.986 142.232 145.795L145.795 143.74C146.126 143.548 146.631 143.522 146.919 143.696L150.517 145.769C150.804 145.934 150.769 146.23 150.438 146.422L146.875 148.477C146.544 148.668 146.039 148.686 145.751 148.52Z" fill="#06033E"/>
<path opacity="0.4" d="M151.308 151.734L147.71 149.661C147.423 149.496 147.458 149.2 147.789 149.008L151.352 146.953C151.683 146.761 152.188 146.744 152.475 146.909L156.073 148.982C156.361 149.147 156.326 149.443 155.995 149.635L152.432 151.69C152.101 151.873 151.596 151.899 151.308 151.734Z" fill="#06033E"/>
<path opacity="0.4" d="M156.867 154.938L153.269 152.866C152.981 152.7 153.016 152.404 153.347 152.213L156.91 150.157C157.241 149.966 157.747 149.948 158.034 150.114L161.632 152.186C161.919 152.352 161.884 152.648 161.553 152.839L157.99 154.894C157.659 155.077 157.154 155.103 156.867 154.938Z" fill="#06033E"/>
<path opacity="0.4" d="M162.416 158.142L158.818 156.07C158.53 155.904 158.565 155.608 158.896 155.417L162.459 153.362C162.79 153.17 163.295 153.144 163.583 153.318L167.181 155.391C167.468 155.556 167.433 155.852 167.102 156.044L163.539 158.099C163.217 158.29 162.712 158.308 162.416 158.142Z" fill="#06033E"/>
<path opacity="0.4" d="M167.974 161.347L164.376 159.274C164.089 159.109 164.124 158.813 164.455 158.621L168.018 156.566C168.349 156.375 168.854 156.349 169.141 156.523L172.739 158.595C173.027 158.761 172.992 159.057 172.661 159.248L169.098 161.303C168.767 161.495 168.262 161.512 167.974 161.347Z" fill="#06033E"/>
<path opacity="0.4" d="M173.531 164.551L169.933 162.479C169.645 162.313 169.68 162.017 170.011 161.826L173.574 159.771C173.905 159.579 174.411 159.553 174.698 159.727L178.296 161.8C178.583 161.965 178.549 162.261 178.218 162.453L174.655 164.508C174.324 164.699 173.818 164.725 173.531 164.551Z" fill="#06033E"/>
<path opacity="0.4" d="M179.089 167.764L175.492 165.692C175.204 165.527 175.239 165.23 175.57 165.039L179.133 162.984C179.464 162.792 179.969 162.766 180.257 162.94L183.855 165.013C184.142 165.178 184.107 165.474 183.776 165.666L180.213 167.721C179.882 167.904 179.377 167.93 179.089 167.764Z" fill="#06033E"/>
<path opacity="0.4" d="M137.275 137.383L133.677 135.311C133.39 135.145 133.424 134.849 133.756 134.658L137.318 132.603C137.65 132.411 138.155 132.385 138.442 132.559L142.04 134.632C142.328 134.797 142.293 135.093 141.962 135.285L138.399 137.34C138.068 137.531 137.562 137.557 137.275 137.383Z" fill="#06033E"/>
<path opacity="0.4" d="M131.63 134.135L128.033 132.063C127.745 131.897 127.78 131.601 128.111 131.41L131.674 129.355C132.005 129.163 132.51 129.137 132.798 129.311L136.396 131.384C136.683 131.549 136.648 131.845 136.317 132.037L132.754 134.092C132.423 134.275 131.918 134.301 131.63 134.135Z" fill="#06033E"/>
<path opacity="0.4" d="M125.984 130.87L118.24 126.394C117.952 126.229 117.987 125.933 118.318 125.741L121.881 123.686C122.212 123.495 122.717 123.468 123.005 123.643L130.749 128.118C131.037 128.284 131.002 128.58 130.671 128.771L127.108 130.826C126.777 131.018 126.272 131.035 125.984 130.87Z" fill="#06033E"/>
<path opacity="0.4" d="M129.932 126.908L123.642 123.277C123.354 123.111 123.389 122.815 123.72 122.624L127.283 120.569C127.614 120.377 128.12 120.351 128.407 120.525L134.697 124.156C134.984 124.322 134.949 124.618 134.618 124.809L131.055 126.864C130.724 127.056 130.219 127.073 129.932 126.908Z" fill="#06033E"/>
<path opacity="0.4" d="M142.824 140.596L139.226 138.524C138.938 138.359 138.973 138.062 139.304 137.871L142.867 135.816C143.198 135.624 143.704 135.598 143.991 135.772L147.589 137.845C147.876 138.01 147.842 138.306 147.51 138.498L143.948 140.553C143.616 140.736 143.111 140.762 142.824 140.596Z" fill="#06033E"/>
<path opacity="0.4" d="M148.382 143.801L144.785 141.728C144.497 141.563 144.532 141.267 144.863 141.075L148.426 139.02C148.757 138.829 149.262 138.803 149.55 138.977L153.148 141.049C153.435 141.215 153.4 141.511 153.069 141.702L149.506 143.757C149.175 143.949 148.67 143.966 148.382 143.801Z" fill="#06033E"/>
<path opacity="0.4" d="M153.939 147.005L150.341 144.933C150.054 144.767 150.089 144.471 150.42 144.28L153.983 142.225C154.314 142.033 154.819 142.016 155.106 142.181L158.704 144.254C158.992 144.419 158.957 144.715 158.626 144.907L155.063 146.962C154.732 147.153 154.226 147.171 153.939 147.005Z" fill="#06033E"/>
<path opacity="0.4" d="M159.498 150.21L155.9 148.137C155.612 147.972 155.647 147.676 155.978 147.484L159.541 145.429C159.872 145.238 160.377 145.212 160.665 145.386L164.263 147.458C164.55 147.624 164.515 147.92 164.184 148.111L160.621 150.166C160.29 150.358 159.785 150.375 159.498 150.21Z" fill="#06033E"/>
<path opacity="0.4" d="M165.046 153.414L161.449 151.342C161.161 151.176 161.196 150.88 161.527 150.689L165.09 148.634C165.421 148.442 165.926 148.416 166.214 148.59L169.812 150.662C170.099 150.828 170.064 151.124 169.733 151.316L166.17 153.371C165.839 153.562 165.343 153.588 165.046 153.414Z" fill="#06033E"/>
<path opacity="0.4" d="M170.605 156.627L167.007 154.555C166.72 154.389 166.755 154.093 167.086 153.902L170.649 151.847C170.98 151.655 171.485 151.629 171.772 151.803L175.37 153.876C175.658 154.041 175.623 154.337 175.292 154.529L171.729 156.584C171.398 156.767 170.892 156.793 170.605 156.627Z" fill="#06033E"/>
<path opacity="0.4" d="M176.162 159.832L172.564 157.759C172.276 157.594 172.311 157.298 172.642 157.106L176.205 155.051C176.536 154.86 177.041 154.833 177.329 155.008L180.927 157.08C181.214 157.245 181.179 157.542 180.848 157.733L177.285 159.788C176.954 159.98 176.449 159.997 176.162 159.832Z" fill="#06033E"/>
<path opacity="0.4" d="M181.72 163.036L178.122 160.964C177.835 160.798 177.87 160.502 178.201 160.311L181.764 158.256C182.095 158.064 182.6 158.047 182.888 158.212L186.485 160.285C186.773 160.45 186.738 160.746 186.407 160.938L182.844 162.993C182.513 163.184 182.008 163.202 181.72 163.036Z" fill="#06033E"/>
<path opacity="0.4" d="M187.269 166.24L183.671 164.168C183.384 164.003 183.419 163.707 183.75 163.515L187.313 161.46C187.644 161.268 188.149 161.251 188.436 161.416L192.034 163.489C192.322 163.654 192.287 163.95 191.956 164.142L188.393 166.197C188.062 166.389 187.565 166.406 187.269 166.24Z" fill="#06033E"/>
<path opacity="0.4" d="M197.149 171.944L189.3 167.416C189.013 167.251 189.048 166.955 189.379 166.763L192.942 164.708C193.273 164.516 193.778 164.49 194.065 164.664L201.914 169.192C202.202 169.358 202.167 169.654 201.836 169.846L198.273 171.901C197.942 172.092 197.437 172.11 197.149 171.944Z" fill="#06033E"/>
<path opacity="0.4" d="M207.969 165.701L201.339 161.878C201.052 161.713 201.087 161.417 201.418 161.225L204.981 159.17C205.312 158.978 205.817 158.961 206.104 159.126L212.734 162.949C213.021 163.115 212.986 163.411 212.655 163.602L209.092 165.657C208.761 165.849 208.256 165.866 207.969 165.701Z" fill="#06033E"/>
<path opacity="0.4" d="M152.554 139.969L148.956 137.897C148.669 137.732 148.704 137.436 149.035 137.244L152.598 135.189C152.929 134.997 153.434 134.971 153.722 135.145L157.319 137.218C157.607 137.383 157.572 137.679 157.241 137.871L153.678 139.926C153.347 140.109 152.842 140.135 152.554 139.969Z" fill="#06033E"/>
<path opacity="0.4" d="M146.867 136.678L143.269 134.606C142.981 134.44 143.016 134.144 143.347 133.952L146.91 131.897C147.241 131.706 147.747 131.688 148.034 131.854L151.632 133.926C151.919 134.092 151.884 134.388 151.553 134.579L147.99 136.634C147.659 136.826 147.154 136.843 146.867 136.678Z" fill="#06033E"/>
<path opacity="0.4" d="M141.169 133.395L137.572 131.323C137.284 131.157 137.319 130.861 137.65 130.67L141.213 128.615C141.544 128.423 142.049 128.397 142.337 128.571L145.935 130.644C146.222 130.809 146.187 131.105 145.856 131.297L142.293 133.352C141.962 133.543 141.457 133.561 141.169 133.395Z" fill="#06033E"/>
<path opacity="0.4" d="M135.472 130.104L131.874 128.031C131.587 127.866 131.622 127.57 131.953 127.378L135.516 125.323C135.847 125.132 136.352 125.105 136.64 125.28L140.237 127.352C140.525 127.517 140.49 127.814 140.159 128.005L136.596 130.06C136.265 130.252 135.76 130.278 135.472 130.104Z" fill="#06033E"/>
<path opacity="0.4" d="M158.113 143.174L154.515 141.102C154.228 140.936 154.262 140.64 154.593 140.448L158.156 138.393C158.487 138.202 158.993 138.176 159.28 138.35L162.878 140.422C163.165 140.588 163.131 140.884 162.8 141.075L159.237 143.13C158.906 143.313 158.4 143.339 158.113 143.174Z" fill="#06033E"/>
<path opacity="0.4" d="M163.669 146.378L160.072 144.306C159.784 144.14 159.819 143.844 160.15 143.653L163.713 141.598C164.044 141.406 164.549 141.38 164.837 141.554L168.435 143.627C168.722 143.792 168.687 144.088 168.356 144.28L164.793 146.335C164.462 146.526 163.957 146.544 163.669 146.378Z" fill="#06033E"/>
<path opacity="0.4" d="M169.22 149.583L165.622 147.51C165.335 147.345 165.37 147.049 165.701 146.857L169.264 144.802C169.595 144.611 170.1 144.585 170.388 144.759L173.985 146.831C174.273 146.997 174.238 147.293 173.907 147.484L170.344 149.539C170.022 149.731 169.516 149.748 169.22 149.583Z" fill="#06033E"/>
<path opacity="0.4" d="M174.777 152.787L171.179 150.715C170.892 150.549 170.926 150.253 171.257 150.062L174.82 148.007C175.151 147.815 175.657 147.798 175.944 147.963L179.542 150.036C179.829 150.201 179.795 150.497 179.464 150.689L175.901 152.744C175.57 152.935 175.064 152.961 174.777 152.787Z" fill="#06033E"/>
<path opacity="0.4" d="M180.335 156L176.738 153.928C176.45 153.762 176.485 153.466 176.816 153.275L180.379 151.22C180.71 151.028 181.215 151.011 181.503 151.176L185.101 153.249C185.388 153.414 185.353 153.71 185.022 153.902L181.459 155.957C181.128 156.14 180.623 156.166 180.335 156Z" fill="#06033E"/>
<path opacity="0.4" d="M185.894 159.205L182.296 157.132C182.009 156.967 182.044 156.671 182.375 156.479L185.938 154.424C186.269 154.233 186.774 154.207 187.061 154.381L190.659 156.453C190.947 156.619 190.912 156.915 190.581 157.106L187.018 159.161C186.687 159.353 186.182 159.37 185.894 159.205Z" fill="#06033E"/>
<path opacity="0.4" d="M191.443 162.409L187.845 160.337C187.558 160.171 187.592 159.875 187.923 159.684L191.486 157.629C191.817 157.437 192.323 157.411 192.61 157.585L196.208 159.658C196.496 159.823 196.461 160.119 196.13 160.311L192.567 162.366C192.244 162.557 191.739 162.575 191.443 162.409Z" fill="#06033E"/>
<path opacity="0.4" d="M197 165.614L193.402 163.541C193.114 163.376 193.149 163.08 193.48 162.888L197.043 160.833C197.374 160.641 197.879 160.615 198.167 160.789L201.765 162.862C202.052 163.027 202.017 163.323 201.686 163.515L198.123 165.57C197.792 165.762 197.287 165.779 197 165.614Z" fill="#06033E"/>
<path opacity="0.4" d="M202.558 168.818L198.96 166.746C198.673 166.58 198.708 166.284 199.039 166.092L202.602 164.037C202.933 163.846 203.438 163.82 203.725 163.994L207.323 166.066C207.611 166.232 207.576 166.528 207.245 166.719L203.682 168.774C203.351 168.966 202.846 168.992 202.558 168.818Z" fill="#06033E"/>
<path opacity="0.4" d="M149.626 132.037L146.029 129.964C145.741 129.799 145.776 129.503 146.107 129.311L149.67 127.256C150.001 127.065 150.506 127.039 150.794 127.213L154.392 129.285C154.679 129.451 154.644 129.747 154.313 129.938L150.75 131.993C150.419 132.185 149.923 132.202 149.626 132.037Z" fill="#06033E"/>
<path opacity="0.4" d="M144.105 128.841L140.507 126.769C140.22 126.603 140.255 126.307 140.586 126.116L144.149 124.061C144.48 123.869 144.985 123.852 145.272 124.017L148.87 126.089C149.158 126.255 149.123 126.551 148.792 126.743L145.229 128.798C144.898 128.989 144.392 129.015 144.105 128.841Z" fill="#06033E"/>
<path opacity="0.4" d="M138.572 125.654L134.974 123.582C134.687 123.416 134.721 123.12 135.052 122.929L138.615 120.874C138.946 120.682 139.452 120.656 139.739 120.83L143.337 122.902C143.624 123.068 143.59 123.364 143.259 123.556L139.696 125.611C139.365 125.802 138.859 125.82 138.572 125.654Z" fill="#06033E"/>
<path opacity="0.4" d="M133.05 122.467L129.452 120.395C129.165 120.229 129.2 119.933 129.531 119.742L133.094 117.687C133.425 117.495 133.93 117.469 134.218 117.643L137.815 119.715C138.103 119.881 138.068 120.177 137.737 120.368L134.174 122.423C133.843 122.606 133.338 122.632 133.05 122.467Z" fill="#06033E"/>
<path opacity="0.4" d="M138.73 119.184L135.132 117.112C134.845 116.946 134.88 116.65 135.211 116.459L136.387 115.78C136.718 115.588 137.223 115.562 137.51 115.736L141.108 117.808C141.396 117.974 141.361 118.27 141.03 118.462L139.854 119.141C139.523 119.332 139.017 119.35 138.73 119.184Z" fill="#06033E"/>
<path opacity="0.4" d="M145.943 123.346L142.345 121.274C142.058 121.109 142.092 120.813 142.423 120.621L143.6 119.942C143.931 119.75 144.436 119.733 144.723 119.898L148.321 121.971C148.609 122.136 148.574 122.432 148.243 122.624L147.067 123.303C146.736 123.495 146.23 123.512 145.943 123.346Z" fill="#06033E"/>
<path opacity="0.4" d="M151.449 126.525L147.851 124.452C147.563 124.287 147.598 123.991 147.929 123.799L149.105 123.12C149.436 122.929 149.942 122.911 150.229 123.077L153.827 125.149C154.114 125.314 154.08 125.611 153.749 125.802L152.573 126.481C152.241 126.673 151.736 126.69 151.449 126.525Z" fill="#06033E"/>
<path opacity="0.4" d="M156.955 129.703L153.357 127.631C153.069 127.465 153.104 127.169 153.435 126.978L154.611 126.298C154.942 126.107 155.448 126.081 155.735 126.255L159.333 128.327C159.62 128.493 159.585 128.789 159.254 128.98L158.078 129.66C157.747 129.842 157.242 129.869 156.955 129.703Z" fill="#06033E"/>
<path opacity="0.4" d="M162.459 132.881L158.861 130.809C158.573 130.644 158.608 130.347 158.939 130.156L160.115 129.477C160.446 129.285 160.951 129.268 161.239 129.433L164.837 131.506C165.124 131.671 165.089 131.967 164.758 132.159L163.582 132.838C163.251 133.021 162.746 133.047 162.459 132.881Z" fill="#06033E"/>
<path opacity="0.4" d="M193.193 150.61L189.595 148.538C189.308 148.372 189.342 148.076 189.673 147.885L190.85 147.206C191.181 147.014 191.686 146.997 191.973 147.162L195.571 149.234C195.859 149.4 195.824 149.696 195.493 149.888L194.317 150.567C193.986 150.758 193.48 150.784 193.193 150.61Z" fill="#06033E"/>
<path opacity="0.4" d="M198.699 153.788L195.101 151.716C194.813 151.551 194.848 151.255 195.179 151.063L196.355 150.384C196.686 150.192 197.192 150.166 197.479 150.34L201.077 152.413C201.364 152.578 201.33 152.874 200.999 153.066L199.823 153.745C199.491 153.937 198.986 153.954 198.699 153.788Z" fill="#06033E"/>
<path opacity="0.4" d="M204.205 156.967L200.607 154.894C200.319 154.729 200.354 154.433 200.685 154.241L201.861 153.562C202.192 153.371 202.698 153.344 202.985 153.519L206.583 155.591C206.87 155.756 206.835 156.053 206.504 156.244L205.328 156.923C204.997 157.115 204.492 157.132 204.205 156.967Z" fill="#06033E"/>
<path opacity="0.4" d="M209.71 160.145L206.113 158.073C205.825 157.907 205.86 157.611 206.191 157.42L207.367 156.74C207.698 156.549 208.203 156.523 208.491 156.697L212.089 158.769C212.376 158.935 212.341 159.231 212.01 159.422L210.834 160.102C210.503 160.293 209.998 160.311 209.71 160.145Z" fill="#06033E"/>
<path opacity="0.4" d="M155.185 135.241L151.587 133.169C151.3 133.003 151.335 132.707 151.666 132.516L155.229 130.461C155.56 130.269 156.065 130.243 156.352 130.417L159.95 132.49C160.238 132.655 160.203 132.951 159.872 133.143L156.309 135.198C155.978 135.389 155.473 135.407 155.185 135.241Z" fill="#06033E"/>
<path opacity="0.4" d="M160.744 138.446L157.146 136.373C156.858 136.208 156.893 135.912 157.224 135.72L160.787 133.665C161.118 133.473 161.624 133.447 161.911 133.622L165.509 135.694C165.796 135.859 165.761 136.155 165.43 136.347L161.867 138.402C161.536 138.594 161.031 138.611 160.744 138.446Z" fill="#06033E"/>
<path opacity="0.4" d="M166.3 141.65L162.702 139.578C162.415 139.412 162.45 139.116 162.781 138.925L166.344 136.87C166.675 136.678 167.18 136.652 167.468 136.826L171.065 138.898C171.353 139.064 171.318 139.36 170.987 139.551L167.424 141.607C167.093 141.798 166.588 141.824 166.3 141.65Z" fill="#06033E"/>
<path opacity="0.4" d="M171.851 144.863L168.253 142.791C167.966 142.625 168.001 142.329 168.332 142.138L171.895 140.083C172.226 139.891 172.731 139.865 173.018 140.039L176.616 142.112C176.904 142.277 176.869 142.573 176.538 142.765L172.975 144.82C172.644 145.002 172.147 145.029 171.851 144.863Z" fill="#06033E"/>
<path opacity="0.4" d="M177.408 148.068L173.81 145.995C173.522 145.83 173.557 145.534 173.888 145.342L177.451 143.287C177.782 143.096 178.288 143.078 178.575 143.244L182.173 145.316C182.46 145.481 182.426 145.778 182.094 145.969L178.532 148.024C178.2 148.216 177.695 148.233 177.408 148.068Z" fill="#06033E"/>
<path opacity="0.4" d="M182.966 151.272L179.369 149.2C179.081 149.034 179.116 148.738 179.447 148.547L183.01 146.492C183.341 146.3 183.846 146.283 184.134 146.448L187.731 148.52C188.019 148.686 187.984 148.982 187.653 149.174L184.09 151.229C183.759 151.42 183.254 151.438 182.966 151.272Z" fill="#06033E"/>
<path opacity="0.4" d="M188.523 154.476L184.925 152.404C184.638 152.239 184.673 151.943 185.004 151.751L188.567 149.696C188.898 149.504 189.403 149.478 189.69 149.652L193.288 151.725C193.576 151.89 193.541 152.186 193.21 152.378L189.647 154.433C189.316 154.624 188.81 154.642 188.523 154.476Z" fill="#06033E"/>
<path opacity="0.4" d="M194.074 157.681L190.476 155.608C190.188 155.443 190.223 155.147 190.554 154.955L194.117 152.9C194.448 152.709 194.954 152.683 195.241 152.857L198.839 154.929C199.126 155.095 199.092 155.391 198.761 155.582L195.198 157.637C194.866 157.829 194.37 157.855 194.074 157.681Z" fill="#06033E"/>
<path opacity="0.4" d="M199.63 160.894L196.033 158.822C195.745 158.656 195.78 158.36 196.111 158.169L199.674 156.114C200.005 155.922 200.51 155.896 200.798 156.07L204.396 158.142C204.683 158.308 204.648 158.604 204.317 158.795L200.754 160.85C200.423 161.033 199.918 161.059 199.63 160.894Z" fill="#06033E"/>
<path opacity="0.4" d="M123.423 135.633L112.829 129.52C112.542 129.355 112.577 129.059 112.908 128.867L116.471 126.812C116.802 126.621 117.307 126.594 117.595 126.769L128.188 132.881C128.475 133.047 128.44 133.343 128.109 133.534L124.546 135.589C124.215 135.781 123.71 135.807 123.423 135.633Z" fill="#06033E"/>
<path opacity="0.4" d="M191.676 175.027L181.083 168.914C180.796 168.748 180.831 168.452 181.162 168.261L184.725 166.206C185.056 166.014 185.561 165.988 185.848 166.162L196.442 172.275C196.729 172.44 196.694 172.736 196.363 172.928L192.8 174.983C192.469 175.175 191.964 175.192 191.676 175.027Z" fill="#06033E"/>
<path opacity="0.4" d="M169.455 169.288L165.857 167.216C165.569 167.05 165.604 166.754 165.935 166.563L170.178 164.116C170.509 163.924 171.014 163.898 171.301 164.072L174.899 166.145C175.187 166.31 175.152 166.606 174.821 166.798L170.578 169.245C170.256 169.436 169.751 169.454 169.455 169.288Z" fill="#06033E"/>
<path opacity="0.4" d="M129.112 146.004L123.363 142.686C123.075 142.521 123.11 142.225 123.441 142.033L127.684 139.586C128.015 139.395 128.52 139.369 128.807 139.543L134.557 142.86C134.844 143.026 134.809 143.322 134.478 143.513L130.236 145.96C129.905 146.152 129.4 146.169 129.112 146.004Z" fill="#06033E"/>
<path opacity="0.4" d="M164.106 166.197L158.357 162.879C158.069 162.714 158.104 162.418 158.435 162.226L162.678 159.779C163.009 159.588 163.514 159.562 163.801 159.736L169.551 163.053C169.838 163.219 169.804 163.515 169.473 163.707L165.23 166.153C164.899 166.345 164.394 166.362 164.106 166.197Z" fill="#06033E"/>
<path opacity="0.4" d="M137.126 150.628L131.376 147.31C131.089 147.145 131.124 146.849 131.455 146.657L135.697 144.21C136.028 144.019 136.533 143.992 136.821 144.167L142.57 147.484C142.858 147.65 142.823 147.946 142.492 148.137L138.25 150.584C137.919 150.776 137.413 150.793 137.126 150.628Z" fill="#06033E"/>
<path opacity="0.4" d="M136.865 144.184L161.876 158.621C162.19 158.804 162.19 159.092 161.876 159.266L157.546 161.765C157.233 161.948 156.736 161.948 156.423 161.765L131.412 147.327L136.865 144.184Z" fill="#06033E"/>
<path opacity="0.4" d="M184.988 175.096L188.995 177.413C189.23 177.552 189.204 177.787 188.925 177.944L187.192 178.945C186.922 179.102 186.504 179.119 186.268 178.98L182.261 176.664C182.026 176.524 182.052 176.289 182.331 176.133L184.064 175.131C184.334 174.983 184.753 174.966 184.988 175.096Z" fill="#06033E"/>
<path opacity="0.4" d="M179.386 171.866L183.394 174.182C183.629 174.321 183.603 174.556 183.324 174.713L181.59 175.715C181.32 175.871 180.902 175.889 180.667 175.749L176.66 173.433C176.424 173.294 176.45 173.059 176.729 172.902L178.463 171.901C178.733 171.744 179.151 171.726 179.386 171.866Z" fill="#06033E"/>
<path opacity="0.4" d="M173.828 168.661L177.835 170.977C178.07 171.117 178.044 171.352 177.765 171.509L176.032 172.51C175.762 172.667 175.343 172.684 175.108 172.545L171.101 170.229C170.866 170.089 170.892 169.854 171.171 169.697L172.904 168.696C173.174 168.539 173.592 168.522 173.828 168.661Z" fill="#06033E"/>
<path opacity="0.4" d="M182.453 170.098L186.46 172.414C186.695 172.554 186.669 172.789 186.39 172.945L184.657 173.947C184.387 174.104 183.968 174.121 183.733 173.982L179.726 171.665C179.491 171.526 179.517 171.291 179.796 171.134L181.529 170.133C181.799 169.976 182.217 169.959 182.453 170.098Z" fill="#06033E"/>
</g>
<g opacity="0.4">
<path opacity="0.4" d="M110.287 135.137L106.689 133.064C106.401 132.899 106.436 132.603 106.767 132.411L111.01 129.964C111.341 129.773 111.846 129.747 112.133 129.921L115.731 131.993C116.019 132.159 115.984 132.455 115.653 132.646L111.41 135.093C111.079 135.285 110.574 135.302 110.287 135.137Z" fill="#06033E"/>
<path opacity="0.4" d="M115.845 138.35L112.247 136.277C111.96 136.112 111.995 135.816 112.326 135.624L116.568 133.177C116.899 132.986 117.405 132.96 117.692 133.134L121.29 135.206C121.577 135.372 121.543 135.668 121.211 135.859L116.969 138.306C116.638 138.489 116.133 138.515 115.845 138.35Z" fill="#06033E"/>
<path opacity="0.4" d="M121.402 141.554L117.804 139.482C117.517 139.316 117.551 139.02 117.882 138.829L122.125 136.382C122.456 136.19 122.961 136.164 123.249 136.338L126.847 138.411C127.134 138.576 127.099 138.872 126.768 139.064L122.526 141.511C122.195 141.702 121.689 141.72 121.402 141.554Z" fill="#06033E"/>
<path opacity="0.4" d="M129.085 138.907L125.488 136.835C125.2 136.669 125.235 136.373 125.566 136.182L129.129 134.127C129.46 133.935 129.965 133.909 130.253 134.083L133.851 136.155C134.138 136.321 134.103 136.617 133.772 136.809L130.209 138.864C129.878 139.046 129.373 139.073 129.085 138.907Z" fill="#06033E"/>
<path opacity="0.4" d="M134.644 142.112L131.046 140.039C130.759 139.874 130.794 139.578 131.125 139.386L134.688 137.331C135.019 137.139 135.524 137.113 135.811 137.288L139.409 139.36C139.697 139.525 139.662 139.821 139.331 140.013L135.768 142.068C135.437 142.26 134.932 142.277 134.644 142.112Z" fill="#06033E"/>
<path opacity="0.4" d="M140.193 145.316L136.595 143.244C136.308 143.078 136.342 142.782 136.673 142.591L140.236 140.536C140.567 140.344 141.073 140.318 141.36 140.492L144.958 142.564C145.246 142.73 145.211 143.026 144.88 143.217L141.317 145.272C140.986 145.464 140.489 145.481 140.193 145.316Z" fill="#06033E"/>
<path opacity="0.4" d="M145.751 148.52L142.154 146.448C141.866 146.283 141.901 145.986 142.232 145.795L145.795 143.74C146.126 143.548 146.631 143.522 146.919 143.696L150.517 145.769C150.804 145.934 150.769 146.23 150.438 146.422L146.875 148.477C146.544 148.668 146.039 148.686 145.751 148.52Z" fill="#06033E"/>
<path opacity="0.4" d="M151.308 151.734L147.71 149.661C147.423 149.496 147.458 149.2 147.789 149.008L151.352 146.953C151.683 146.761 152.188 146.744 152.475 146.909L156.073 148.982C156.361 149.147 156.326 149.443 155.995 149.635L152.432 151.69C152.101 151.873 151.596 151.899 151.308 151.734Z" fill="#06033E"/>
<path opacity="0.4" d="M156.867 154.938L153.269 152.866C152.981 152.7 153.016 152.404 153.347 152.213L156.91 150.157C157.241 149.966 157.747 149.948 158.034 150.114L161.632 152.186C161.919 152.352 161.884 152.648 161.553 152.839L157.99 154.894C157.659 155.077 157.154 155.103 156.867 154.938Z" fill="#06033E"/>
<path opacity="0.4" d="M162.416 158.142L158.818 156.07C158.53 155.904 158.565 155.608 158.896 155.417L162.459 153.362C162.79 153.17 163.295 153.144 163.583 153.318L167.181 155.391C167.468 155.556 167.433 155.852 167.102 156.044L163.539 158.099C163.217 158.29 162.712 158.308 162.416 158.142Z" fill="#06033E"/>
<path opacity="0.4" d="M167.974 161.347L164.376 159.274C164.089 159.109 164.124 158.813 164.455 158.621L168.018 156.566C168.349 156.375 168.854 156.349 169.141 156.523L172.739 158.595C173.027 158.761 172.992 159.057 172.661 159.248L169.098 161.303C168.767 161.495 168.262 161.512 167.974 161.347Z" fill="#06033E"/>
<path opacity="0.4" d="M173.531 164.551L169.933 162.479C169.645 162.313 169.68 162.017 170.011 161.826L173.574 159.771C173.905 159.579 174.411 159.553 174.698 159.727L178.296 161.8C178.583 161.965 178.549 162.261 178.218 162.453L174.655 164.508C174.324 164.699 173.818 164.725 173.531 164.551Z" fill="#06033E"/>
<path opacity="0.4" d="M179.089 167.764L175.492 165.692C175.204 165.527 175.239 165.23 175.57 165.039L179.133 162.984C179.464 162.792 179.969 162.766 180.257 162.94L183.855 165.013C184.142 165.178 184.107 165.474 183.776 165.666L180.213 167.721C179.882 167.904 179.377 167.93 179.089 167.764Z" fill="#06033E"/>
<path opacity="0.4" d="M137.275 137.383L133.677 135.311C133.39 135.145 133.424 134.849 133.756 134.658L137.318 132.603C137.65 132.411 138.155 132.385 138.442 132.559L142.04 134.632C142.328 134.797 142.293 135.093 141.962 135.285L138.399 137.34C138.068 137.531 137.562 137.557 137.275 137.383Z" fill="#06033E"/>
<path opacity="0.4" d="M131.63 134.135L128.033 132.063C127.745 131.897 127.78 131.601 128.111 131.41L131.674 129.355C132.005 129.163 132.51 129.137 132.798 129.311L136.396 131.384C136.683 131.549 136.648 131.845 136.317 132.037L132.754 134.092C132.423 134.275 131.918 134.301 131.63 134.135Z" fill="#06033E"/>
<path opacity="0.4" d="M125.984 130.87L118.24 126.394C117.952 126.229 117.987 125.933 118.318 125.741L121.881 123.686C122.212 123.495 122.717 123.468 123.005 123.643L130.749 128.118C131.037 128.284 131.002 128.58 130.671 128.771L127.108 130.826C126.777 131.018 126.272 131.035 125.984 130.87Z" fill="#06033E"/>
<path opacity="0.4" d="M129.932 126.908L123.642 123.277C123.354 123.111 123.389 122.815 123.72 122.624L127.283 120.569C127.614 120.377 128.12 120.351 128.407 120.525L134.697 124.156C134.984 124.322 134.949 124.618 134.618 124.809L131.055 126.864C130.724 127.056 130.219 127.073 129.932 126.908Z" fill="#06033E"/>
<path opacity="0.4" d="M142.824 140.596L139.226 138.524C138.938 138.359 138.973 138.062 139.304 137.871L142.867 135.816C143.198 135.624 143.704 135.598 143.991 135.772L147.589 137.845C147.876 138.01 147.842 138.306 147.51 138.498L143.948 140.553C143.616 140.736 143.111 140.762 142.824 140.596Z" fill="#06033E"/>
<path opacity="0.4" d="M148.382 143.801L144.785 141.728C144.497 141.563 144.532 141.267 144.863 141.075L148.426 139.02C148.757 138.829 149.262 138.803 149.55 138.977L153.148 141.049C153.435 141.215 153.4 141.511 153.069 141.702L149.506 143.757C149.175 143.949 148.67 143.966 148.382 143.801Z" fill="#06033E"/>
<path opacity="0.4" d="M153.939 147.005L150.341 144.933C150.054 144.767 150.089 144.471 150.42 144.28L153.983 142.225C154.314 142.033 154.819 142.016 155.106 142.181L158.704 144.254C158.992 144.419 158.957 144.715 158.626 144.907L155.063 146.962C154.732 147.153 154.226 147.171 153.939 147.005Z" fill="#06033E"/>
<path opacity="0.4" d="M159.498 150.21L155.9 148.137C155.612 147.972 155.647 147.676 155.978 147.484L159.541 145.429C159.872 145.238 160.377 145.212 160.665 145.386L164.263 147.458C164.55 147.624 164.515 147.92 164.184 148.111L160.621 150.166C160.29 150.358 159.785 150.375 159.498 150.21Z" fill="#06033E"/>
<path opacity="0.4" d="M165.046 153.414L161.449 151.342C161.161 151.176 161.196 150.88 161.527 150.689L165.09 148.634C165.421 148.442 165.926 148.416 166.214 148.59L169.812 150.662C170.099 150.828 170.064 151.124 169.733 151.316L166.17 153.371C165.839 153.562 165.343 153.588 165.046 153.414Z" fill="#06033E"/>
<path opacity="0.4" d="M170.605 156.627L167.007 154.555C166.72 154.389 166.755 154.093 167.086 153.902L170.649 151.847C170.98 151.655 171.485 151.629 171.772 151.803L175.37 153.876C175.658 154.041 175.623 154.337 175.292 154.529L171.729 156.584C171.398 156.767 170.892 156.793 170.605 156.627Z" fill="#06033E"/>
<path opacity="0.4" d="M176.162 159.832L172.564 157.759C172.276 157.594 172.311 157.298 172.642 157.106L176.205 155.051C176.536 154.86 177.041 154.833 177.329 155.008L180.927 157.08C181.214 157.245 181.179 157.542 180.848 157.733L177.285 159.788C176.954 159.98 176.449 159.997 176.162 159.832Z" fill="#06033E"/>
<path opacity="0.4" d="M181.72 163.036L178.122 160.964C177.835 160.798 177.87 160.502 178.201 160.311L181.764 158.256C182.095 158.064 182.6 158.047 182.888 158.212L186.485 160.285C186.773 160.45 186.738 160.746 186.407 160.938L182.844 162.993C182.513 163.184 182.008 163.202 181.72 163.036Z" fill="#06033E"/>
<path opacity="0.4" d="M187.269 166.24L183.671 164.168C183.384 164.003 183.419 163.707 183.75 163.515L187.313 161.46C187.644 161.268 188.149 161.251 188.436 161.416L192.034 163.489C192.322 163.654 192.287 163.95 191.956 164.142L188.393 166.197C188.062 166.389 187.565 166.406 187.269 166.24Z" fill="#06033E"/>
<path opacity="0.4" d="M197.149 171.944L189.3 167.416C189.013 167.251 189.048 166.955 189.379 166.763L192.942 164.708C193.273 164.516 193.778 164.49 194.065 164.664L201.914 169.192C202.202 169.358 202.167 169.654 201.836 169.846L198.273 171.901C197.942 172.092 197.437 172.11 197.149 171.944Z" fill="#06033E"/>
<path opacity="0.4" d="M207.969 165.701L201.339 161.878C201.052 161.713 201.087 161.417 201.418 161.225L204.981 159.17C205.312 158.978 205.817 158.961 206.104 159.126L212.734 162.949C213.021 163.115 212.986 163.411 212.655 163.602L209.092 165.657C208.761 165.849 208.256 165.866 207.969 165.701Z" fill="#06033E"/>
<path opacity="0.4" d="M152.554 139.969L148.956 137.897C148.669 137.732 148.704 137.436 149.035 137.244L152.598 135.189C152.929 134.997 153.434 134.971 153.722 135.145L157.319 137.218C157.607 137.383 157.572 137.679 157.241 137.871L153.678 139.926C153.347 140.109 152.842 140.135 152.554 139.969Z" fill="#06033E"/>
<path opacity="0.4" d="M146.867 136.678L143.269 134.606C142.981 134.44 143.016 134.144 143.347 133.952L146.91 131.897C147.241 131.706 147.747 131.688 148.034 131.854L151.632 133.926C151.919 134.092 151.884 134.388 151.553 134.579L147.99 136.634C147.659 136.826 147.154 136.843 146.867 136.678Z" fill="#06033E"/>
<path opacity="0.4" d="M141.169 133.395L137.572 131.323C137.284 131.157 137.319 130.861 137.65 130.67L141.213 128.615C141.544 128.423 142.049 128.397 142.337 128.571L145.935 130.644C146.222 130.809 146.187 131.105 145.856 131.297L142.293 133.352C141.962 133.543 141.457 133.561 141.169 133.395Z" fill="#06033E"/>
<path opacity="0.4" d="M135.472 130.104L131.874 128.031C131.587 127.866 131.622 127.57 131.953 127.378L135.516 125.323C135.847 125.132 136.352 125.105 136.64 125.28L140.237 127.352C140.525 127.517 140.49 127.814 140.159 128.005L136.596 130.06C136.265 130.252 135.76 130.278 135.472 130.104Z" fill="#06033E"/>
<path opacity="0.4" d="M158.113 143.174L154.515 141.102C154.228 140.936 154.262 140.64 154.593 140.448L158.156 138.393C158.487 138.202 158.993 138.176 159.28 138.35L162.878 140.422C163.165 140.588 163.131 140.884 162.8 141.075L159.237 143.13C158.906 143.313 158.4 143.339 158.113 143.174Z" fill="#06033E"/>
<path opacity="0.4" d="M163.669 146.378L160.072 144.306C159.784 144.14 159.819 143.844 160.15 143.653L163.713 141.598C164.044 141.406 164.549 141.38 164.837 141.554L168.435 143.627C168.722 143.792 168.687 144.088 168.356 144.28L164.793 146.335C164.462 146.526 163.957 146.544 163.669 146.378Z" fill="#06033E"/>
<path opacity="0.4" d="M169.22 149.583L165.622 147.51C165.335 147.345 165.37 147.049 165.701 146.857L169.264 144.802C169.595 144.611 170.1 144.585 170.388 144.759L173.985 146.831C174.273 146.997 174.238 147.293 173.907 147.484L170.344 149.539C170.022 149.731 169.516 149.748 169.22 149.583Z" fill="#06033E"/>
<path opacity="0.4" d="M174.777 152.787L171.179 150.715C170.892 150.549 170.926 150.253 171.257 150.062L174.82 148.007C175.151 147.815 175.657 147.798 175.944 147.963L179.542 150.036C179.829 150.201 179.795 150.497 179.464 150.689L175.901 152.744C175.57 152.935 175.064 152.961 174.777 152.787Z" fill="#06033E"/>
<path opacity="0.4" d="M180.335 156L176.738 153.928C176.45 153.762 176.485 153.466 176.816 153.275L180.379 151.22C180.71 151.028 181.215 151.011 181.503 151.176L185.101 153.249C185.388 153.414 185.353 153.71 185.022 153.902L181.459 155.957C181.128 156.14 180.623 156.166 180.335 156Z" fill="#06033E"/>
<path opacity="0.4" d="M185.894 159.205L182.296 157.132C182.009 156.967 182.044 156.671 182.375 156.479L185.938 154.424C186.269 154.233 186.774 154.207 187.061 154.381L190.659 156.453C190.947 156.619 190.912 156.915 190.581 157.106L187.018 159.161C186.687 159.353 186.182 159.37 185.894 159.205Z" fill="#06033E"/>
<path opacity="0.4" d="M191.443 162.409L187.845 160.337C187.558 160.171 187.592 159.875 187.923 159.684L191.486 157.629C191.817 157.437 192.323 157.411 192.61 157.585L196.208 159.658C196.496 159.823 196.461 160.119 196.13 160.311L192.567 162.366C192.244 162.557 191.739 162.575 191.443 162.409Z" fill="#06033E"/>
<path opacity="0.4" d="M197 165.614L193.402 163.541C193.114 163.376 193.149 163.08 193.48 162.888L197.043 160.833C197.374 160.641 197.879 160.615 198.167 160.789L201.765 162.862C202.052 163.027 202.017 163.323 201.686 163.515L198.123 165.57C197.792 165.762 197.287 165.779 197 165.614Z" fill="#06033E"/>
<path opacity="0.4" d="M202.558 168.818L198.96 166.746C198.673 166.58 198.708 166.284 199.039 166.092L202.602 164.037C202.933 163.846 203.438 163.82 203.725 163.994L207.323 166.066C207.611 166.232 207.576 166.528 207.245 166.719L203.682 168.774C203.351 168.966 202.846 168.992 202.558 168.818Z" fill="#06033E"/>
<path opacity="0.4" d="M149.626 132.037L146.029 129.964C145.741 129.799 145.776 129.503 146.107 129.311L149.67 127.256C150.001 127.065 150.506 127.039 150.794 127.213L154.392 129.285C154.679 129.451 154.644 129.747 154.313 129.938L150.75 131.993C150.419 132.185 149.923 132.202 149.626 132.037Z" fill="#06033E"/>
<path opacity="0.4" d="M144.105 128.841L140.507 126.769C140.22 126.603 140.255 126.307 140.586 126.116L144.149 124.061C144.48 123.869 144.985 123.852 145.272 124.017L148.87 126.089C149.158 126.255 149.123 126.551 148.792 126.743L145.229 128.798C144.898 128.989 144.392 129.015 144.105 128.841Z" fill="#06033E"/>
<path opacity="0.4" d="M138.572 125.654L134.974 123.582C134.687 123.416 134.721 123.12 135.052 122.929L138.615 120.874C138.946 120.682 139.452 120.656 139.739 120.83L143.337 122.902C143.624 123.068 143.59 123.364 143.259 123.556L139.696 125.611C139.365 125.802 138.859 125.82 138.572 125.654Z" fill="#06033E"/>
<path opacity="0.4" d="M133.05 122.467L129.452 120.395C129.165 120.229 129.2 119.933 129.531 119.742L133.094 117.687C133.425 117.495 133.93 117.469 134.218 117.643L137.815 119.715C138.103 119.881 138.068 120.177 137.737 120.368L134.174 122.423C133.843 122.606 133.338 122.632 133.05 122.467Z" fill="#06033E"/>
<path opacity="0.4" d="M138.73 119.184L135.132 117.112C134.845 116.946 134.88 116.65 135.211 116.459L136.387 115.78C136.718 115.588 137.223 115.562 137.51 115.736L141.108 117.808C141.396 117.974 141.361 118.27 141.03 118.462L139.854 119.141C139.523 119.332 139.017 119.35 138.73 119.184Z" fill="#06033E"/>
<path opacity="0.4" d="M145.943 123.346L142.345 121.274C142.058 121.109 142.092 120.813 142.423 120.621L143.6 119.942C143.931 119.75 144.436 119.733 144.723 119.898L148.321 121.971C148.609 122.136 148.574 122.432 148.243 122.624L147.067 123.303C146.736 123.495 146.23 123.512 145.943 123.346Z" fill="#06033E"/>
<path opacity="0.4" d="M151.449 126.525L147.851 124.452C147.563 124.287 147.598 123.991 147.929 123.799L149.105 123.12C149.436 122.929 149.942 122.911 150.229 123.077L153.827 125.149C154.114 125.314 154.08 125.611 153.749 125.802L152.573 126.481C152.241 126.673 151.736 126.69 151.449 126.525Z" fill="#06033E"/>
<path opacity="0.4" d="M156.955 129.703L153.357 127.631C153.069 127.465 153.104 127.169 153.435 126.978L154.611 126.298C154.942 126.107 155.448 126.081 155.735 126.255L159.333 128.327C159.62 128.493 159.585 128.789 159.254 128.98L158.078 129.66C157.747 129.842 157.242 129.869 156.955 129.703Z" fill="#06033E"/>
<path opacity="0.4" d="M162.459 132.881L158.861 130.809C158.573 130.644 158.608 130.347 158.939 130.156L160.115 129.477C160.446 129.285 160.951 129.268 161.239 129.433L164.837 131.506C165.124 131.671 165.089 131.967 164.758 132.159L163.582 132.838C163.251 133.021 162.746 133.047 162.459 132.881Z" fill="#06033E"/>
<path opacity="0.4" d="M193.193 150.61L189.595 148.538C189.308 148.372 189.342 148.076 189.673 147.885L190.85 147.206C191.181 147.014 191.686 146.997 191.973 147.162L195.571 149.234C195.859 149.4 195.824 149.696 195.493 149.888L194.317 150.567C193.986 150.758 193.48 150.784 193.193 150.61Z" fill="#06033E"/>
<path opacity="0.4" d="M198.699 153.788L195.101 151.716C194.813 151.551 194.848 151.255 195.179 151.063L196.355 150.384C196.686 150.192 197.192 150.166 197.479 150.34L201.077 152.413C201.364 152.578 201.33 152.874 200.999 153.066L199.823 153.745C199.491 153.937 198.986 153.954 198.699 153.788Z" fill="#06033E"/>
<path opacity="0.4" d="M204.205 156.967L200.607 154.894C200.319 154.729 200.354 154.433 200.685 154.241L201.861 153.562C202.192 153.371 202.698 153.344 202.985 153.519L206.583 155.591C206.87 155.756 206.835 156.053 206.504 156.244L205.328 156.923C204.997 157.115 204.492 157.132 204.205 156.967Z" fill="#06033E"/>
<path opacity="0.4" d="M209.71 160.145L206.113 158.073C205.825 157.907 205.86 157.611 206.191 157.42L207.367 156.74C207.698 156.549 208.203 156.523 208.491 156.697L212.089 158.769C212.376 158.935 212.341 159.231 212.01 159.422L210.834 160.102C210.503 160.293 209.998 160.311 209.71 160.145Z" fill="#06033E"/>
<path opacity="0.4" d="M155.185 135.241L151.587 133.169C151.3 133.003 151.335 132.707 151.666 132.516L155.229 130.461C155.56 130.269 156.065 130.243 156.352 130.417L159.95 132.49C160.238 132.655 160.203 132.951 159.872 133.143L156.309 135.198C155.978 135.389 155.473 135.407 155.185 135.241Z" fill="#06033E"/>
<path opacity="0.4" d="M160.744 138.446L157.146 136.373C156.858 136.208 156.893 135.912 157.224 135.72L160.787 133.665C161.118 133.473 161.624 133.447 161.911 133.622L165.509 135.694C165.796 135.859 165.761 136.155 165.43 136.347L161.867 138.402C161.536 138.594 161.031 138.611 160.744 138.446Z" fill="#06033E"/>
<path opacity="0.4" d="M166.3 141.65L162.702 139.578C162.415 139.412 162.45 139.116 162.781 138.925L166.344 136.87C166.675 136.678 167.18 136.652 167.468 136.826L171.065 138.898C171.353 139.064 171.318 139.36 170.987 139.551L167.424 141.607C167.093 141.798 166.588 141.824 166.3 141.65Z" fill="#06033E"/>
<path opacity="0.4" d="M171.851 144.863L168.253 142.791C167.966 142.625 168.001 142.329 168.332 142.138L171.895 140.083C172.226 139.891 172.731 139.865 173.018 140.039L176.616 142.112C176.904 142.277 176.869 142.573 176.538 142.765L172.975 144.82C172.644 145.002 172.147 145.029 171.851 144.863Z" fill="#06033E"/>
<path opacity="0.4" d="M177.408 148.068L173.81 145.995C173.522 145.83 173.557 145.534 173.888 145.342L177.451 143.287C177.782 143.096 178.288 143.078 178.575 143.244L182.173 145.316C182.46 145.481 182.426 145.778 182.094 145.969L178.532 148.024C178.2 148.216 177.695 148.233 177.408 148.068Z" fill="#06033E"/>
<path opacity="0.4" d="M182.966 151.272L179.369 149.2C179.081 149.034 179.116 148.738 179.447 148.547L183.01 146.492C183.341 146.3 183.846 146.283 184.134 146.448L187.731 148.52C188.019 148.686 187.984 148.982 187.653 149.174L184.09 151.229C183.759 151.42 183.254 151.438 182.966 151.272Z" fill="#06033E"/>
<path opacity="0.4" d="M188.523 154.476L184.925 152.404C184.638 152.239 184.673 151.943 185.004 151.751L188.567 149.696C188.898 149.504 189.403 149.478 189.69 149.652L193.288 151.725C193.576 151.89 193.541 152.186 193.21 152.378L189.647 154.433C189.316 154.624 188.81 154.642 188.523 154.476Z" fill="#06033E"/>
<path opacity="0.4" d="M194.074 157.681L190.476 155.608C190.188 155.443 190.223 155.147 190.554 154.955L194.117 152.9C194.448 152.709 194.954 152.683 195.241 152.857L198.839 154.929C199.126 155.095 199.092 155.391 198.761 155.582L195.198 157.637C194.866 157.829 194.37 157.855 194.074 157.681Z" fill="#06033E"/>
<path opacity="0.4" d="M199.63 160.894L196.033 158.822C195.745 158.656 195.78 158.36 196.111 158.169L199.674 156.114C200.005 155.922 200.51 155.896 200.798 156.07L204.396 158.142C204.683 158.308 204.648 158.604 204.317 158.795L200.754 160.85C200.423 161.033 199.918 161.059 199.63 160.894Z" fill="#06033E"/>
<path opacity="0.4" d="M123.423 135.633L112.829 129.52C112.542 129.355 112.577 129.059 112.908 128.867L116.471 126.812C116.802 126.621 117.307 126.594 117.595 126.769L128.188 132.881C128.475 133.047 128.44 133.343 128.109 133.534L124.546 135.589C124.215 135.781 123.71 135.807 123.423 135.633Z" fill="#06033E"/>
<path opacity="0.4" d="M191.676 175.027L181.083 168.914C180.796 168.748 180.831 168.452 181.162 168.261L184.725 166.206C185.056 166.014 185.561 165.988 185.848 166.162L196.442 172.275C196.729 172.44 196.694 172.736 196.363 172.928L192.8 174.983C192.469 175.175 191.964 175.192 191.676 175.027Z" fill="#06033E"/>
<path opacity="0.4" d="M169.455 169.288L165.857 167.216C165.569 167.05 165.604 166.754 165.935 166.563L170.178 164.116C170.509 163.924 171.014 163.898 171.301 164.072L174.899 166.145C175.187 166.31 175.152 166.606 174.821 166.798L170.578 169.245C170.256 169.436 169.751 169.454 169.455 169.288Z" fill="#06033E"/>
<path opacity="0.4" d="M129.112 146.004L123.363 142.686C123.075 142.521 123.11 142.225 123.441 142.033L127.684 139.586C128.015 139.395 128.52 139.369 128.807 139.543L134.557 142.86C134.844 143.026 134.809 143.322 134.478 143.513L130.236 145.96C129.905 146.152 129.4 146.169 129.112 146.004Z" fill="#06033E"/>
<path opacity="0.4" d="M164.106 166.197L158.357 162.879C158.069 162.714 158.104 162.418 158.435 162.226L162.678 159.779C163.009 159.588 163.514 159.562 163.801 159.736L169.551 163.053C169.838 163.219 169.804 163.515 169.473 163.707L165.23 166.153C164.899 166.345 164.394 166.362 164.106 166.197Z" fill="#06033E"/>
<path opacity="0.4" d="M137.126 150.628L131.376 147.31C131.089 147.145 131.124 146.849 131.455 146.657L135.697 144.21C136.028 144.019 136.533 143.992 136.821 144.167L142.57 147.484C142.858 147.65 142.823 147.946 142.492 148.137L138.25 150.584C137.919 150.776 137.413 150.793 137.126 150.628Z" fill="#06033E"/>
<path opacity="0.4" d="M136.865 144.184L161.876 158.621C162.19 158.804 162.19 159.092 161.876 159.266L157.546 161.765C157.233 161.948 156.736 161.948 156.423 161.765L131.412 147.327L136.865 144.184Z" fill="#06033E"/>
<path opacity="0.4" d="M184.988 175.096L188.995 177.413C189.23 177.552 189.204 177.787 188.925 177.944L187.192 178.945C186.922 179.102 186.504 179.119 186.268 178.98L182.261 176.664C182.026 176.524 182.052 176.289 182.331 176.133L184.064 175.131C184.334 174.983 184.753 174.966 184.988 175.096Z" fill="#06033E"/>
<path opacity="0.4" d="M179.386 171.866L183.394 174.182C183.629 174.321 183.603 174.556 183.324 174.713L181.59 175.715C181.32 175.871 180.902 175.889 180.667 175.749L176.66 173.433C176.424 173.294 176.45 173.059 176.729 172.902L178.463 171.901C178.733 171.744 179.151 171.726 179.386 171.866Z" fill="#06033E"/>
<path opacity="0.4" d="M173.828 168.661L177.835 170.977C178.07 171.117 178.044 171.352 177.765 171.509L176.032 172.51C175.762 172.667 175.343 172.684 175.108 172.545L171.101 170.229C170.866 170.089 170.892 169.854 171.171 169.697L172.904 168.696C173.174 168.539 173.592 168.522 173.828 168.661Z" fill="#06033E"/>
<path opacity="0.4" d="M182.453 170.098L186.46 172.414C186.695 172.554 186.669 172.789 186.39 172.945L184.657 173.947C184.387 174.104 183.968 174.121 183.733 173.982L179.726 171.665C179.491 171.526 179.517 171.291 179.796 171.134L181.529 170.133C181.799 169.976 182.217 169.959 182.453 170.098Z" fill="#06033E"/>
</g>
<path d="M241.253 163.611L135.113 102.352C133.441 101.386 132.57 99.0434 133.171 97.1103L157.171 19.2115C157.763 17.2783 159.601 16.4947 161.265 17.4612L267.405 78.711C269.078 79.6776 269.949 82.0199 269.348 83.953L245.348 161.852C244.755 163.785 242.917 164.577 241.253 163.611Z" fill="url(#paint6_radial_82_13247)"/>
<path d="M240.253 160.885L137.301 101.421C135.707 100.498 134.871 98.251 135.437 96.405L158.383 21.937C158.949 20.0909 160.709 19.3334 162.303 20.2564L265.254 79.7211C266.849 80.6441 267.685 82.8907 267.119 84.7367L244.173 159.205C243.607 161.051 241.847 161.8 240.253 160.885Z" fill="url(#paint7_linear_82_13247)"/>
<path opacity="0.4" d="M240.253 160.885L137.301 101.421C135.707 100.498 134.871 98.251 135.437 96.405L158.383 21.937C158.949 20.0909 160.709 19.3334 162.303 20.2564L265.254 79.7211C266.849 80.6441 267.685 82.8907 267.119 84.7367L244.173 159.205C243.607 161.051 241.847 161.8 240.253 160.885Z" fill="#06033E"/>
<path opacity="0.4" d="M240.253 160.885L137.301 101.421C135.707 100.498 134.871 98.251 135.437 96.405L158.383 21.937C158.949 20.0909 160.709 19.3334 162.303 20.2564L265.254 79.7211C266.849 80.6441 267.685 82.8907 267.119 84.7367L244.173 159.205C243.607 161.051 241.847 161.8 240.253 160.885Z" fill="#06033E"/>
<path opacity="0.5" d="M234.721 138.123L165.029 97.9026C163.932 97.267 163.365 95.7257 163.749 94.4631L179.508 43.3142C179.9 42.0429 181.102 41.5291 182.199 42.1648L251.891 82.3856C252.988 83.0212 253.555 84.5625 253.171 85.8251L237.412 136.974C237.02 138.237 235.818 138.759 234.721 138.123Z" fill="#06033E"/>
<path d="M225.303 139.36L155.611 99.1392C154.514 98.5036 153.947 96.9623 154.331 95.6997L170.09 44.5508C170.482 43.2795 171.684 42.7657 172.781 43.4014L242.473 83.6221C243.57 84.2578 244.137 85.7991 243.753 87.0617L227.994 138.211C227.602 139.473 226.4 139.987 225.303 139.36Z" fill="url(#paint8_radial_82_13247)"/>
<g opacity="0.5">
<path opacity="0.5" d="M223.657 127.692L206.975 118.104C206.165 117.634 205.747 116.502 206.034 115.571L217.655 77.8576C217.943 76.9259 218.831 76.5427 219.641 77.0042L236.324 86.5914C237.134 87.0616 237.552 88.1936 237.264 89.1253L225.643 126.838C225.347 127.779 224.459 128.153 223.657 127.692Z" fill="#06033E"/>
</g>
<path d="M242.474 83.6134L172.782 43.3926C172.094 42.9921 171.362 43.053 170.822 43.4623C171.153 43.4536 171.493 43.5233 171.833 43.7235L241.524 83.9443C242.622 84.58 243.188 86.1212 242.805 87.3838L227.046 138.533C226.898 139.003 226.636 139.377 226.314 139.621C227.063 139.595 227.725 139.09 227.995 138.211L243.754 87.0616C244.146 85.7903 243.571 84.2491 242.474 83.6134Z" fill="white"/>
<path d="M216.757 128.432L200.074 118.845C199.264 118.374 198.846 117.242 199.134 116.311L210.755 78.5978C211.042 77.6661 211.931 77.283 212.741 77.7445L229.423 87.3316C230.233 87.8018 230.652 88.9338 230.364 89.8656L218.743 127.579C218.456 128.51 217.567 128.893 216.757 128.432Z" fill="url(#paint9_radial_82_13247)"/>
<path d="M229.423 87.3228L212.74 77.7357C212.191 77.4222 211.616 77.5006 211.207 77.8663C211.399 77.8837 211.599 77.9446 211.791 78.0578L228.473 87.645C229.283 88.1152 229.701 89.2472 229.414 90.1789L217.784 127.901C217.688 128.205 217.532 128.44 217.34 128.615C217.958 128.676 218.525 128.284 218.742 127.578L230.363 89.8655C230.651 88.925 230.233 87.793 229.423 87.3228Z" fill="white"/>
<g opacity="0.5">
<path opacity="0.5" d="M182.991 71.0048L179.838 69.1849C179.542 69.0194 179.385 68.6102 179.489 68.2793C179.585 67.9484 179.908 67.8178 180.195 67.9832L183.349 69.8031C183.645 69.9686 183.802 70.3778 183.697 70.7087C183.601 71.0483 183.288 71.1789 182.991 71.0048Z" fill="#06033E"/>
<path opacity="0.5" d="M190.493 75.3412L185.85 72.6592C185.553 72.4938 185.397 72.0845 185.501 71.7536C185.597 71.4227 185.919 71.2921 186.207 71.4576L190.85 74.1395C191.146 74.305 191.303 74.7142 191.198 75.0451C191.103 75.376 190.789 75.5066 190.493 75.3412Z" fill="#06033E"/>
<path opacity="0.5" d="M176.64 85.0241L173.486 83.2042C173.19 83.0387 173.033 82.6295 173.138 82.2986C173.234 81.9677 173.556 81.837 173.844 82.0025L176.997 83.8224C177.293 83.9879 177.45 84.3971 177.346 84.728C177.25 85.0589 176.936 85.1895 176.64 85.0241Z" fill="#06033E"/>
<path opacity="0.5" d="M183.331 88.8816L178.688 86.1996C178.391 86.0342 178.235 85.6249 178.339 85.294C178.435 84.9631 178.757 84.8325 179.045 84.998L183.688 87.6799C183.984 87.8454 184.141 88.2546 184.036 88.5855C183.941 88.9164 183.618 89.047 183.331 88.8816Z" fill="#06033E"/>
<path opacity="0.5" d="M173.557 68.5144L171.588 67.3824C171.292 67.2169 171.135 66.8077 171.239 66.4768C171.335 66.1459 171.658 66.0153 171.945 66.1807L173.914 67.3127C174.21 67.4782 174.367 67.8874 174.262 68.2183C174.166 68.5492 173.853 68.6798 173.557 68.5144Z" fill="#06033E"/>
<path opacity="0.5" d="M179.482 74.871L173.471 71.4053C173.175 71.2399 173.018 70.8306 173.122 70.4997C173.218 70.1688 173.54 70.0382 173.828 70.2037L179.839 73.6693C180.135 73.8348 180.292 74.244 180.187 74.5749C180.091 74.9058 179.769 75.0451 179.482 74.871Z" fill="#06033E"/>
<path opacity="0.5" d="M173.932 77.5704L171.963 76.4384C171.667 76.273 171.51 75.8637 171.614 75.5328C171.71 75.2019 172.033 75.0713 172.32 75.2367L174.289 76.3687C174.585 76.5342 174.742 76.9434 174.637 77.2743C174.541 77.6052 174.228 77.7358 173.932 77.5704Z" fill="#06033E"/>
<path opacity="0.5" d="M184.054 95.1946L178.801 92.1644C178.505 91.9989 178.348 91.5897 178.452 91.2588C178.548 90.9279 178.87 90.7973 179.158 90.9627L184.411 93.993C184.707 94.1584 184.864 94.5677 184.759 94.8986C184.664 95.2295 184.341 95.3601 184.054 95.1946Z" fill="#06033E"/>
<path opacity="0.5" d="M171.728 82.1855L170.465 81.454C170.169 81.2886 170.012 80.8793 170.116 80.5484C170.212 80.2175 170.535 80.0869 170.822 80.2524L172.085 80.9838C172.381 81.1493 172.538 81.5585 172.434 81.8894C172.338 82.229 172.024 82.3596 171.728 82.1855Z" fill="#06033E"/>
<path opacity="0.5" d="M170.535 87.3926L168.967 86.487C168.671 86.3215 168.514 85.9123 168.618 85.5814C168.714 85.2505 169.036 85.1199 169.324 85.2853L170.892 86.1909C171.188 86.3564 171.345 86.7656 171.24 87.0965C171.145 87.4274 170.831 87.558 170.535 87.3926Z" fill="#06033E"/>
<path opacity="0.5" d="M176.632 90.9105L172.494 88.5246C172.198 88.3591 172.041 87.9499 172.146 87.619C172.242 87.2881 172.564 87.1575 172.851 87.3229L176.989 89.7088C177.285 89.8743 177.442 90.2835 177.338 90.6144C177.242 90.9453 176.928 91.0847 176.632 90.9105Z" fill="#06033E"/>
<path opacity="0.5" d="M171.187 90.719L168.217 89.0036C167.921 88.8381 167.764 88.4289 167.868 88.098C167.964 87.7671 168.286 87.6365 168.574 87.8019L171.545 89.5173C171.841 89.6828 171.998 90.092 171.893 90.4229C171.797 90.7538 171.484 90.8844 171.187 90.719Z" fill="#06033E"/>
<path opacity="0.5" d="M188.558 97.807L186.65 96.7011C186.354 96.5357 186.197 96.1264 186.302 95.7955C186.398 95.4646 186.72 95.334 187.008 95.4994L188.915 96.6053C189.212 96.7708 189.368 97.18 189.264 97.5109C189.168 97.8418 188.854 97.9724 188.558 97.807Z" fill="#06033E"/>
<path opacity="0.5" d="M181.249 81.7936L175.996 78.7634C175.7 78.5979 175.543 78.1887 175.648 77.8578C175.743 77.5269 176.066 77.3963 176.353 77.5617L181.606 80.592C181.902 80.7574 182.059 81.1667 181.955 81.4976C181.859 81.8285 181.545 81.9591 181.249 81.7936Z" fill="#06033E"/>
</g>
<path d="M181.876 79.2074L172.721 73.9218C172.425 73.7564 172.268 73.3471 172.372 73.0162C172.468 72.6853 172.79 72.5547 173.078 72.7201L182.234 78.0057C182.53 78.1712 182.687 78.5804 182.582 78.9113C182.486 79.2422 182.164 79.3728 181.876 79.2074Z" fill="#E8975B"/>
<path d="M176.476 81.9764L171.223 78.9461C170.926 78.7807 170.77 78.3714 170.874 78.0405C170.97 77.7096 171.292 77.579 171.58 77.7444L176.833 80.7747C177.129 80.9402 177.286 81.3494 177.181 81.6803C177.077 82.0112 176.763 82.1505 176.476 81.9764Z" fill="#E8975B"/>
<path d="M185.24 84.0924L183.332 82.9865C183.036 82.8211 182.879 82.4118 182.984 82.0809C183.079 81.75 183.402 81.6194 183.689 81.7848L185.597 82.8907C185.893 83.0562 186.05 83.4654 185.945 83.7963C185.85 84.1272 185.527 84.2578 185.24 84.0924Z" fill="#E8975B"/>
<path d="M204.657 83.5089L193.35 76.9869C193.053 76.8214 192.897 76.4122 193.001 76.0813C193.097 75.7504 193.419 75.6198 193.707 75.7852L205.014 82.3073C205.31 82.4727 205.467 82.882 205.363 83.2129C205.267 83.5437 204.953 83.6831 204.657 83.5089Z" fill="#E8975B"/>
<path d="M176.031 87.619L169.715 83.9705C169.419 83.8051 169.262 83.3958 169.366 83.0649C169.462 82.734 169.785 82.6034 170.072 82.7689L176.388 86.4174C176.684 86.5828 176.841 86.9921 176.736 87.323C176.64 87.6539 176.327 87.7845 176.031 87.619Z" fill="#F8359E"/>
<path d="M176.989 67.5391L172.346 64.8571C172.05 64.6917 171.893 64.2824 171.997 63.9515C172.093 63.6206 172.415 63.49 172.703 63.6554L177.346 66.3374C177.642 66.5029 177.799 66.9121 177.695 67.243C177.59 67.5739 177.276 67.7132 176.989 67.5391Z" fill="#F8359E"/>
<path d="M170.221 93.1049L164.846 90.0049C164.55 89.8395 164.393 89.4302 164.497 89.0993C164.593 88.7684 164.915 88.6378 165.203 88.8033L170.578 91.9032C170.874 92.0687 171.031 92.4779 170.926 92.8088C170.83 93.1397 170.508 93.2703 170.221 93.1049Z" fill="#E8975B"/>
<path d="M239.093 76.2119L235.939 74.392C235.643 74.2266 235.486 73.8173 235.591 73.4864C235.687 73.1555 236.009 73.0249 236.297 73.1904L239.45 75.0103C239.746 75.1757 239.903 75.585 239.799 75.9159C239.694 76.2468 239.38 76.3774 239.093 76.2119Z" fill="white"/>
<path d="M245.095 79.6776L241.941 77.8577C241.645 77.6923 241.488 77.283 241.593 76.9521C241.689 76.6212 242.011 76.4906 242.299 76.6561L245.452 78.476C245.748 78.6414 245.905 79.0507 245.801 79.3816C245.705 79.7124 245.391 79.8431 245.095 79.6776Z" fill="white"/>
<path d="M251.107 83.1432L247.953 81.3233C247.657 81.1578 247.5 80.7486 247.605 80.4177C247.701 80.0868 248.023 79.9562 248.31 80.1216L251.464 81.9415C251.76 82.107 251.917 82.5162 251.812 82.8471C251.716 83.178 251.394 83.3086 251.107 83.1432Z" fill="white"/>
<path d="M254.059 84.8499L253.963 84.789C253.667 84.6235 253.51 84.2143 253.614 83.8834C253.71 83.5525 254.033 83.4219 254.32 83.5873L254.416 83.6483C254.712 83.8137 254.869 84.223 254.764 84.5539C254.668 84.8848 254.346 85.0154 254.059 84.8499Z" fill="#F8359E"/>
<path d="M207.635 99.8358C207.296 99.6442 206.947 99.7574 206.843 100.088L206.241 102.056C206.137 102.387 206.329 102.814 206.668 103.014C207.008 103.206 207.357 103.092 207.461 102.762L208.062 100.794C208.158 100.463 207.966 100.036 207.635 99.8358Z" fill="#E8975B"/>
<path d="M210.17 101.595C209.83 101.403 209.482 101.516 209.377 101.847L208.855 103.571C208.75 103.902 208.942 104.329 209.282 104.529C209.621 104.721 209.97 104.608 210.074 104.277L210.597 102.553C210.693 102.213 210.51 101.786 210.17 101.595Z" fill="#F8359E"/>
<path d="M213.368 101.177C213.028 100.985 212.68 101.098 212.575 101.429L211.46 105.069C211.356 105.4 211.547 105.827 211.887 106.027C212.227 106.218 212.575 106.105 212.68 105.774L213.795 102.135C213.899 101.804 213.708 101.377 213.368 101.177Z" fill="#E8975B"/>
<path d="M216.617 100.593C216.277 100.402 215.929 100.515 215.824 100.846L214.073 106.584C213.969 106.915 214.161 107.342 214.5 107.542C214.84 107.734 215.189 107.62 215.293 107.29L217.044 101.551C217.149 101.212 216.957 100.785 216.617 100.593Z" fill="#E8975B"/>
<path d="M219.048 102.701C218.708 102.509 218.359 102.622 218.255 102.953L216.687 108.091C216.582 108.422 216.774 108.848 217.114 109.049C217.453 109.24 217.802 109.127 217.906 108.796L219.474 103.658C219.579 103.319 219.387 102.892 219.048 102.701Z" fill="#F8359E"/>
<path d="M222.828 100.376C222.488 100.184 222.14 100.297 222.035 100.628L219.3 109.597C219.195 109.928 219.387 110.355 219.727 110.555C220.067 110.747 220.415 110.633 220.52 110.302L223.255 101.334C223.36 100.994 223.168 100.567 222.828 100.376Z" fill="#E8975B"/>
<path opacity="0.4" d="M137.404 181.131C136.446 181.131 135.523 180.93 134.826 180.53L106.906 164.421C106.165 163.994 105.756 163.384 105.756 162.705C105.756 161.913 106.313 161.138 107.298 160.572L121.672 152.273C123.431 151.263 126.001 151.159 127.543 152.047L155.463 168.156C156.204 168.583 156.613 169.192 156.613 169.872C156.613 170.664 156.056 171.439 155.071 172.005L140.697 180.303C139.739 180.843 138.546 181.131 137.404 181.131ZM124.965 152.247C123.954 152.247 122.883 152.491 122.064 152.961L107.69 161.26C106.967 161.678 106.557 162.2 106.557 162.697C106.557 163.184 106.958 163.524 107.298 163.715L135.218 179.825C136.481 180.556 138.807 180.451 140.279 179.598L154.653 171.3C155.376 170.882 155.794 170.359 155.794 169.863C155.794 169.375 155.394 169.036 155.054 168.844L127.134 152.735C126.567 152.404 125.783 152.247 124.965 152.247Z" fill="#06033E"/>
<path d="M37.2314 111.948C36.7 112.253 36.7261 112.784 37.2749 113.133L40.5504 115.196C41.108 115.545 41.9791 115.579 42.5105 115.275C43.0419 114.97 43.0158 114.439 42.4669 114.09L39.1914 112.027C38.6426 111.678 37.7628 111.644 37.2314 111.948Z" fill="#E8975B"/>
<path d="M41.7431 109.832C41.2117 110.137 41.2378 110.668 41.7867 111.017L44.6527 112.819C45.2102 113.167 46.0814 113.202 46.6128 112.897C47.1442 112.593 47.118 112.061 46.5692 111.713L43.7032 109.911C43.1543 109.562 42.2745 109.528 41.7431 109.832Z" fill="#F8359E"/>
<path d="M42.6591 105.461C42.1277 105.766 42.1539 106.297 42.7027 106.645L48.7658 110.459C49.3233 110.807 50.1945 110.842 50.7259 110.538C51.2573 110.233 51.2311 109.702 50.6823 109.353L44.6192 105.539C44.0617 105.191 43.1818 105.156 42.6591 105.461Z" fill="#E8975B"/>
<path d="M43.2685 100.898C42.7371 101.203 42.7632 101.734 43.312 102.082L52.8598 108.091C53.4173 108.439 54.2884 108.474 54.8198 108.169C55.3512 107.864 55.3251 107.333 54.7763 106.985L45.2286 100.977C44.671 100.628 43.7999 100.593 43.2685 100.898Z" fill="#E8975B"/>
<path d="M48.374 99.1653C47.8426 99.4701 47.8687 100.001 48.4175 100.35L56.9634 105.731C57.5209 106.079 58.3921 106.114 58.9235 105.809C59.4549 105.505 59.4287 104.973 58.8799 104.625L50.334 99.2437C49.7765 98.8954 48.9054 98.8605 48.374 99.1653Z" fill="#F8359E"/>
<path d="M46.0908 92.7826C45.5594 93.0874 45.5855 93.6186 46.1343 93.9669L61.0657 103.362C61.6232 103.711 62.4944 103.746 63.0257 103.441C63.5571 103.136 63.531 102.605 62.9822 102.257L48.0508 92.861C47.502 92.5127 46.6222 92.4779 46.0908 92.7826Z" fill="#E8975B"/>
<path d="M36.0309 110.05C36.571 110.39 36.5972 110.912 36.0745 111.217C35.5518 111.513 34.6894 111.478 34.1493 111.138C33.6092 110.799 33.583 110.276 34.1057 109.972C34.6284 109.676 35.4908 109.71 36.0309 110.05Z" fill="#E8975B"/>
<path d="M32.9548 108.117C33.4949 108.456 33.521 108.979 32.9983 109.284C32.4756 109.588 31.6132 109.545 31.0731 109.205C30.533 108.866 30.5069 108.343 31.0295 108.038C31.5522 107.734 32.4147 107.769 32.9548 108.117Z" fill="#F8359E"/>
<path d="M67.1136 92.5475L69.4221 91.2414C69.8577 90.9976 70.5546 91.0063 70.9815 91.2588C71.4083 91.5113 71.4083 91.9119 70.9728 92.1557L68.6642 93.4619C68.2287 93.7057 67.5317 93.697 67.1049 93.4444C66.678 93.1919 66.6867 92.7914 67.1136 92.5475Z" fill="#E8975B"/>
<path d="M63.8721 90.6318L70.3969 86.9398C70.8325 86.6959 71.5294 86.7046 71.9563 86.9572C72.3831 87.2097 72.3831 87.6102 71.9476 87.8541L65.4227 91.5461C64.9871 91.7899 64.2902 91.7812 63.8634 91.5287C63.4278 91.2849 63.4365 90.8756 63.8721 90.6318Z" fill="#E8975B"/>
<path d="M80.371 85.9472C80.7978 86.1997 80.7978 86.6002 80.3623 86.844L73.8374 90.5361C73.4018 90.7799 72.7049 90.7712 72.278 90.5187C71.8512 90.2662 71.8512 89.8656 72.2868 89.6218L78.8116 85.9297C79.2385 85.6859 79.9441 85.6946 80.371 85.9472Z" fill="#E8975B"/>
<path d="M85.4669 83.9531L85.0835 84.1707L83.228 85.2157C82.7924 85.4595 82.0955 85.4508 81.6687 85.1982C81.2418 84.9457 81.2418 84.5452 81.6774 84.3014L83.5329 83.2564L83.9162 83.0388L85.7718 81.9938C86.2073 81.75 86.9042 81.7587 87.3311 82.0112C87.758 82.2638 87.758 82.6643 87.3224 82.9081L85.4669 83.9531Z" fill="#E8975B"/>
</g>
<defs>
<radialGradient id="paint0_radial_82_13247" cx="0" cy="0" r="1" gradientUnits="userSpaceOnUse" gradientTransform="translate(1.24752 93.1862) scale(115.456 115.406)">
<stop stop-color="#E39A65"/>
<stop offset="0.2827" stop-color="#A92FFB"/>
<stop offset="0.3347" stop-color="#891CFB"/>
<stop offset="0.3984" stop-color="#6507FA"/>
<stop offset="0.5405" stop-color="#0D0C6F"/>
</radialGradient>
<radialGradient id="paint1_radial_82_13247" cx="0" cy="0" r="1" gradientUnits="userSpaceOnUse" gradientTransform="translate(20.7886 59.6496) scale(152.408 152.342)">
<stop stop-color="#E39A65"/>
<stop offset="0.4146" stop-color="#A92FFB"/>
<stop offset="0.5547" stop-color="#891CFB"/>
<stop offset="0.7262" stop-color="#6507FA"/>
<stop offset="0.7367" stop-color="#6308F8"/>
<stop offset="1" stop-color="#3919BB"/>
</radialGradient>
<radialGradient id="paint2_radial_82_13247" cx="0" cy="0" r="1" gradientUnits="userSpaceOnUse" gradientTransform="translate(26.7133 63.639) scale(95.7405 95.6994)">
<stop stop-color="#6507FA"/>
<stop offset="1" stop-color="#3919BB"/>
</radialGradient>
<radialGradient id="paint3_radial_82_13247" cx="0" cy="0" r="1" gradientUnits="userSpaceOnUse" gradientTransform="translate(161.097 12.9818) scale(164.746 164.675)">
<stop stop-color="#E39A65"/>
<stop offset="0.4742" stop-color="#A92FFB"/>
<stop offset="0.5947" stop-color="#891CFB"/>
<stop offset="0.7421" stop-color="#6507FA"/>
<stop offset="0.8016" stop-color="#0D0C6F"/>
</radialGradient>
<radialGradient id="paint4_radial_82_13247" cx="0" cy="0" r="1" gradientUnits="userSpaceOnUse" gradientTransform="translate(60.3346 145.228) scale(180.148 180.07)">
<stop stop-color="#E39A65"/>
<stop offset="0.4742" stop-color="#A92FFB"/>
<stop offset="0.5679" stop-color="#891CFB"/>
<stop offset="0.6825" stop-color="#6507FA"/>
<stop offset="0.7381" stop-color="#0D0C6F"/>
</radialGradient>
<radialGradient id="paint5_radial_82_13247" cx="0" cy="0" r="1" gradientUnits="userSpaceOnUse" gradientTransform="translate(76.9034 109.084) scale(161.546 161.477)">
<stop stop-color="#E39A65"/>
<stop offset="0.4742" stop-color="#A92FFB"/>
<stop offset="0.5875" stop-color="#891CFB"/>
<stop offset="0.7262" stop-color="#6507FA"/>
<stop offset="1" stop-color="#3919BB"/>
</radialGradient>
<radialGradient id="paint6_radial_82_13247" cx="0" cy="0" r="1" gradientUnits="userSpaceOnUse" gradientTransform="translate(117.148 47.3315) scale(164.779 164.708)">
<stop stop-color="#E39A65"/>
<stop offset="0.4742" stop-color="#A92FFB"/>
<stop offset="0.5875" stop-color="#891CFB"/>
<stop offset="0.7262" stop-color="#6507FA"/>
<stop offset="1" stop-color="#3919BB"/>
</radialGradient>
<linearGradient id="paint7_linear_82_13247" x1="135.26" y1="90.5676" x2="267.299" y2="90.5676" gradientUnits="userSpaceOnUse">
<stop stop-color="#3919BB"/>
<stop offset="1" stop-color="#6507FA"/>
</linearGradient>
<radialGradient id="paint8_radial_82_13247" cx="0" cy="0" r="1" gradientUnits="userSpaceOnUse" gradientTransform="translate(56.9943 12.1588) scale(256.639 256.528)">
<stop stop-color="#E39A65"/>
<stop offset="0.4742" stop-color="#A92FFB"/>
<stop offset="0.5875" stop-color="#891CFB"/>
<stop offset="0.7262" stop-color="#6507FA"/>
<stop offset="1" stop-color="#3919BB"/>
</radialGradient>
<radialGradient id="paint9_radial_82_13247" cx="0" cy="0" r="1" gradientUnits="userSpaceOnUse" gradientTransform="translate(90.4506 43.4524) scale(150.111 150.046)">
<stop stop-color="#E39A65"/>
<stop offset="0.4742" stop-color="#A92FFB"/>
<stop offset="0.5875" stop-color="#891CFB"/>
<stop offset="0.7262" stop-color="#6507FA"/>
<stop offset="1" stop-color="#3919BB"/>
</radialGradient>
<clipPath id="clip0_82_13247">
<rect width="76.2876" height="69.5279" fill="white" transform="translate(20.2793)"/>
</clipPath>
<clipPath id="clip1_82_13247">
<rect width="271.352" height="208.584" fill="white" transform="translate(0 16.4163)"/>
</clipPath>
</defs>
</svg>
