<svg width="278" height="253" viewBox="0 0 278 253" fill="none" xmlns="http://www.w3.org/2000/svg">
<g opacity="0.5">
<path d="M0.024054 153.532C1.63101 70.4061 88.6645 10.0208 184.77 1.96529C208.172 0.0114513 247.765 -0.537048 277.07 8.63623L249.342 59.789C229.988 54.8643 207.137 53.4619 184.358 54.4611C86.3282 57.8529 24.6354 115.371 23.2597 173.527C22.5362 204.409 37.4465 234.149 67.0507 251.349L65.1176 253C22.1508 231.617 -0.85058 197.975 0.024054 153.532Z" fill="white"/>
<path d="M45.6487 173.047C55.3704 124.506 109.435 87.4276 194.39 91.86C206.154 92.4797 219.511 93.633 231.433 96.2451L206.875 141.527C199.231 140.478 187.298 138.352 177.054 137.801C110.122 134.299 68.9406 161.991 62.1096 197.302C58.442 216.263 66.2159 237.449 85.615 250.771L83.67 252.265C50.4517 233.883 39.6923 202.722 45.6487 173.047Z" fill="white"/>
<path d="M85.7688 197.625C102.028 170.283 151.028 161.43 194.778 172.056L181.952 195.568C147.174 187.565 106.911 193 95.372 213.048C89.0984 223.959 92.5969 238.952 99.6829 249.534L98.3843 250.841C82.0272 236.21 76.0767 213.938 85.7688 197.625Z" fill="white"/>
</g>
</svg>
