<svg width="85" height="18" viewBox="0 0 85 18" fill="none" xmlns="http://www.w3.org/2000/svg">
<path d="M3.31445 16.6711L9.28113 4.73778C10.0512 3.19773 12.2489 3.19773 13.0189 4.73778L17.1167 12.9334C17.8867 14.4734 20.0845 14.4734 20.8545 12.9334L24.9523 4.73778C25.7223 3.19773 27.92 3.19773 28.69 4.73778L32.7878 12.9334C33.5579 14.4734 35.7556 14.4734 36.5256 12.9334L40.6234 4.73778C41.3934 3.19773 43.5912 3.19773 44.3612 4.73778L48.459 12.9334C49.229 14.4734 51.4267 14.4734 52.1967 12.9334L56.2945 4.73778C57.0646 3.19773 59.2623 3.19773 60.0323 4.73778L64.1301 12.9334C64.9001 14.4734 67.0979 14.4734 67.8679 12.9334L71.9657 4.73778C72.7357 3.19773 74.9334 3.19773 75.7035 4.73778L81.6701 16.6711" stroke="url(#paint0_linear_12_1733)" stroke-width="5.22371"/>
<defs>
<linearGradient id="paint0_linear_12_1733" x1="3.31445" y1="7.90105" x2="81.2809" y2="13.9363" gradientUnits="userSpaceOnUse">
<stop stop-color="#8850F4"/>
<stop offset="1" stop-color="#6959FC"/>
</linearGradient>
</defs>
</svg>
