<svg width="75" height="49" viewBox="0 0 75 49" fill="none" xmlns="http://www.w3.org/2000/svg">
<path d="M0 23.7439C0 16.3626 1.32267 10.5813 3.968 6.39993C6.656 2.2186 11.0933 0.12793 17.28 0.12793C23.4667 0.12793 27.8827 2.2186 30.528 6.39993C33.216 10.5813 34.56 16.3626 34.56 23.7439C34.56 31.1679 33.216 36.9919 30.528 41.2159C27.8827 45.4399 23.4667 47.5519 17.28 47.5519C11.0933 47.5519 6.656 45.4399 3.968 41.2159C1.32267 36.9919 0 31.1679 0 23.7439ZM25.728 23.7439C25.728 20.5866 25.5147 17.9413 25.088 15.8079C24.704 13.6319 23.8933 11.8613 22.656 10.4959C21.4613 9.1306 19.6693 8.44793 17.28 8.44793C14.8907 8.44793 13.0773 9.1306 11.84 10.4959C10.6453 11.8613 9.83467 13.6319 9.408 15.8079C9.024 17.9413 8.832 20.5866 8.832 23.7439C8.832 26.9866 9.024 29.7173 9.408 31.9359C9.792 34.1119 10.6027 35.8826 11.84 37.2479C13.0773 38.5706 14.8907 39.2319 17.28 39.2319C19.6693 39.2319 21.4827 38.5706 22.72 37.2479C23.9573 35.8826 24.768 34.1119 25.152 31.9359C25.536 29.7173 25.728 26.9866 25.728 23.7439Z" fill="url(#paint0_linear_82_406)"/>
<path d="M40.287 9.27993V1.02393H55.711V47.6799H46.495V9.27993H40.287Z" fill="url(#paint1_linear_82_406)"/>
<path d="M69.5545 48.1279C67.9332 48.1279 66.5892 47.6373 65.5225 46.6559C64.4985 45.6319 63.9865 44.3733 63.9865 42.8799C63.9865 41.3866 64.4985 40.1493 65.5225 39.1679C66.5892 38.1439 67.9332 37.6319 69.5545 37.6319C71.1332 37.6319 72.4345 38.1439 73.4585 39.1679C74.4825 40.1493 74.9945 41.3866 74.9945 42.8799C74.9945 44.3733 74.4825 45.6319 73.4585 46.6559C72.4345 47.6373 71.1332 48.1279 69.5545 48.1279Z" fill="url(#paint2_linear_82_406)"/>
<defs>
<linearGradient id="paint0_linear_82_406" x1="-4.91866e-08" y1="21.2655" x2="75.0252" y2="23.0803" gradientUnits="userSpaceOnUse">
<stop stop-color="#8850F4"/>
<stop offset="1" stop-color="#6959FC"/>
</linearGradient>
<linearGradient id="paint1_linear_82_406" x1="-4.91866e-08" y1="21.2655" x2="75.0252" y2="23.0803" gradientUnits="userSpaceOnUse">
<stop stop-color="#8850F4"/>
<stop offset="1" stop-color="#6959FC"/>
</linearGradient>
<linearGradient id="paint2_linear_82_406" x1="-4.91866e-08" y1="21.2655" x2="75.0252" y2="23.0803" gradientUnits="userSpaceOnUse">
<stop stop-color="#8850F4"/>
<stop offset="1" stop-color="#6959FC"/>
</linearGradient>
</defs>
</svg>
