<svg width="89" height="49" viewBox="0 0 89 49" fill="none" xmlns="http://www.w3.org/2000/svg">
<path d="M0 23.744C0 16.3627 1.32267 10.5813 3.968 6.4C6.656 2.21867 11.0933 0.128002 17.28 0.128002C23.4667 0.128002 27.8827 2.21867 30.528 6.4C33.216 10.5813 34.56 16.3627 34.56 23.744C34.56 31.168 33.216 36.992 30.528 41.216C27.8827 45.44 23.4667 47.552 17.28 47.552C11.0933 47.552 6.656 45.44 3.968 41.216C1.32267 36.992 0 31.168 0 23.744ZM25.728 23.744C25.728 20.5867 25.5147 17.9413 25.088 15.808C24.704 13.632 23.8933 11.8613 22.656 10.496C21.4613 9.13067 19.6693 8.448 17.28 8.448C14.8907 8.448 13.0773 9.13067 11.84 10.496C10.6453 11.8613 9.83467 13.632 9.408 15.808C9.024 17.9413 8.832 20.5867 8.832 23.744C8.832 26.9867 9.024 29.7173 9.408 31.936C9.792 34.112 10.6027 35.8827 11.84 37.248C13.0773 38.5707 14.8907 39.232 17.28 39.232C19.6693 39.232 21.4827 38.5707 22.72 37.248C23.9573 35.8827 24.768 34.112 25.152 31.936C25.536 29.7173 25.728 26.9867 25.728 23.744Z" fill="url(#paint0_linear_82_405)"/>
<path d="M44.191 37.568C48.287 34.1547 51.551 31.3173 53.983 29.056C56.415 26.752 58.4417 24.3627 60.063 21.888C61.6843 19.4133 62.495 16.9813 62.495 14.592C62.495 12.416 61.983 10.7093 60.959 9.472C59.935 8.23467 58.3563 7.616 56.223 7.616C54.0897 7.616 52.447 8.34134 51.295 9.792C50.143 11.2 49.5457 13.1413 49.503 15.616H40.799C40.9697 10.496 42.4843 6.61333 45.343 3.968C48.2443 1.32267 51.9137 0 56.351 0C61.215 0 64.9483 1.30133 67.551 3.904C70.1537 6.464 71.455 9.856 71.455 14.08C71.455 17.408 70.559 20.5867 68.767 23.616C66.975 26.6453 64.927 29.2907 62.623 31.552C60.319 33.7707 57.311 36.4587 53.599 39.616H72.479V47.04H40.863V40.384L44.191 37.568Z" fill="url(#paint1_linear_82_405)"/>
<path d="M83.117 48.128C81.4957 48.128 80.1517 47.6373 79.085 46.656C78.061 45.632 77.549 44.3733 77.549 42.88C77.549 41.3867 78.061 40.1493 79.085 39.168C80.1517 38.144 81.4957 37.632 83.117 37.632C84.6957 37.632 85.997 38.144 87.021 39.168C88.045 40.1493 88.557 41.3867 88.557 42.88C88.557 44.3733 88.045 45.632 87.021 46.656C85.997 47.6373 84.6957 48.128 83.117 48.128Z" fill="url(#paint2_linear_82_405)"/>
<defs>
<linearGradient id="paint0_linear_82_405" x1="-5.80818e-08" y1="21.194" x2="88.5732" y2="23.7172" gradientUnits="userSpaceOnUse">
<stop stop-color="#8850F4"/>
<stop offset="1" stop-color="#6959FC"/>
</linearGradient>
<linearGradient id="paint1_linear_82_405" x1="-5.80818e-08" y1="21.194" x2="88.5732" y2="23.7172" gradientUnits="userSpaceOnUse">
<stop stop-color="#8850F4"/>
<stop offset="1" stop-color="#6959FC"/>
</linearGradient>
<linearGradient id="paint2_linear_82_405" x1="-5.80818e-08" y1="21.194" x2="88.5732" y2="23.7172" gradientUnits="userSpaceOnUse">
<stop stop-color="#8850F4"/>
<stop offset="1" stop-color="#6959FC"/>
</linearGradient>
</defs>
</svg>
