<svg width="20" height="20" viewBox="0 0 20 20" fill="none" xmlns="http://www.w3.org/2000/svg">
<path d="M9.708 19.709C4.76468 19.6438 0.773155 15.6523 0.708 10.709C0.773155 5.76568 4.76468 1.77415 9.708 1.709C14.6513 1.77415 18.6428 5.76568 18.708 10.709C18.6428 15.6523 14.6513 19.6438 9.708 19.709ZM9.708 3.709C5.86317 3.75962 2.75862 6.86417 2.708 10.709C2.75862 14.5538 5.86317 17.6584 9.708 17.709C13.5528 17.6584 16.6574 14.5538 16.708 10.709C16.6574 6.86417 13.5528 3.75962 9.708 3.709ZM14.708 11.709H8.708V5.709H10.708V9.709H14.708V11.709ZM18 4.417L14.991 1.417L16.4 0L19.41 3L18 4.416V4.417ZM1.415 4.417L0 3L2.991 0L4.406 1.417L1.417 4.417H1.415Z" fill="white"/>
</svg>
