<svg width="21" height="14" viewBox="0 0 21 14" fill="none" xmlns="http://www.w3.org/2000/svg">
<path fill-rule="evenodd" clip-rule="evenodd" d="M20.1735 4.40386C20.1767 4.46094 20.1724 4.51925 20.158 4.57633L18.8629 9.70922C18.7976 9.96696 18.5636 10.1494 18.2948 10.1507L10.5244 10.1896C10.5234 10.1896 10.5224 10.1896 10.5215 10.1896H2.75106C2.48076 10.1896 2.24514 10.0077 2.17986 9.74747L0.884793 4.59576C0.869826 4.53682 0.865564 4.47661 0.869287 4.41767C0.368317 4.26151 0.00390625 3.79746 0.00390625 3.24998C0.00390625 2.57395 0.558398 2.02462 1.24012 2.02462C1.92183 2.02462 2.47635 2.57395 2.47635 3.24998C2.47635 3.63002 2.3004 3.9699 2.02503 4.19504L3.64635 5.81362C4.05615 6.22186 4.62483 6.45766 5.20656 6.45766C5.8944 6.45766 6.55037 6.13343 6.96336 5.59099L9.62804 2.09296C9.40418 1.87097 9.26549 1.56557 9.26549 1.22755C9.26549 0.552159 9.82013 0.00280762 10.5017 0.00280762C11.1834 0.00280762 11.7379 0.552159 11.7379 1.22755C11.7379 1.55554 11.6067 1.85279 11.3946 2.07291C11.3953 2.07415 11.3961 2.07478 11.3969 2.07604L14.0422 5.58345C14.4551 6.1303 15.1133 6.45766 15.8031 6.45766C16.3902 6.45766 16.9423 6.23001 17.3575 5.81862L18.9891 4.20383C18.7078 3.97806 18.5272 3.63441 18.5272 3.24998C18.5272 2.57395 19.0817 2.02462 19.7634 2.02462C20.445 2.02462 20.9995 2.57395 20.9995 3.24998C20.9995 3.78178 20.6538 4.23518 20.1735 4.40386ZM18.7365 12.0176C18.7365 11.6953 18.473 11.4338 18.1478 11.4338H2.92113C2.59596 11.4338 2.33244 11.6953 2.33244 12.0176V13.4167C2.33244 13.739 2.59596 13.9999 2.92113 13.9999H18.1478C18.473 13.9999 18.7365 13.739 18.7365 13.4167V12.0176Z" fill="white"/>
</svg>
