<svg width="35" height="35" viewBox="0 0 35 35" fill="none" xmlns="http://www.w3.org/2000/svg">
<path opacity="0.7" d="M3.24999 17.801L3.25001 17.8037C3.3343 25.6434 9.73574 31.9424 17.5758 31.9005C25.4158 31.8582 31.7492 25.4907 31.7492 17.6505C31.7492 9.81034 25.4158 3.44285 17.5758 3.4005C9.73574 3.35857 3.3343 9.6576 3.25001 17.4973H3.25V17.5L3.24999 17.801ZM17.4997 34.75C7.97294 34.7499 0.25 27.0268 0.25 17.5C0.25 7.97309 7.97309 0.25 17.5 0.25C27.0268 0.25 34.7499 7.97294 34.75 17.4997C34.7395 27.0225 27.0225 34.7395 17.4997 34.75ZM26 19H9V16H26V19Z" fill="#686868" stroke="white" stroke-width="0.5"/>
</svg>
