<svg width="14" height="13" viewBox="0 0 14 13" fill="none" xmlns="http://www.w3.org/2000/svg">
<path fill-rule="evenodd" clip-rule="evenodd" d="M10.919 12.9349V7.93341C10.919 6.98485 10.6603 5.97162 9.51776 5.97162C8.87102 5.97162 8.31051 6.42434 8.09492 7.02797C8.00869 7.26511 8.00869 7.50225 8.00869 7.73939V12.9349H5.24924C5.24924 9.91676 5.2708 6.92018 5.18457 3.90203H7.57753L7.70688 5.17396H7.74999C8.33206 4.2254 9.40997 3.70801 10.5094 3.70801C12.7946 3.70801 13.7001 5.54045 13.7001 7.61004V12.9349H10.919ZM0.829102 12.9352V3.90234H3.58855V12.9352H0.829102ZM2.22963 0C3.04884 0 3.67403 0.560513 3.67403 1.40128C3.67403 2.26361 3.02728 2.80256 2.18651 2.80256C1.3673 2.80256 0.763672 2.22049 0.763672 1.40128C0.763672 0.560513 1.41042 0 2.22963 0Z" fill="url(#paint0_linear_34_293)"/>
<defs>
<linearGradient id="paint0_linear_34_293" x1="0.763672" y1="5.69624" x2="13.7098" y2="5.89669" gradientUnits="userSpaceOnUse">
<stop stop-color="#8850F4"/>
<stop offset="1" stop-color="#6959FC"/>
</linearGradient>
</defs>
</svg>
