<svg width="14" height="20" viewBox="0 0 14 20" fill="none" xmlns="http://www.w3.org/2000/svg">
<path d="M7.36998 0C7.56208 0.0254322 7.75561 0.0459736 7.94677 0.0772748C10.5364 0.505221 12.3765 1.96904 13.4378 4.43157C14.1149 6.00201 14.1528 7.64092 13.7 9.29597C13.3068 10.7324 12.685 12.0647 11.9696 13.3509C10.7143 15.6081 9.2087 17.6813 7.56729 19.6513C7.18024 20.1154 6.8036 20.1164 6.4175 19.6513C4.55701 17.4098 2.85883 15.0495 1.52687 12.4271C0.917904 11.2278 0.381809 9.99144 0.140968 8.65038C-0.33267 6.0157 0.390326 3.76348 2.26311 1.92062C3.36937 0.832905 4.71174 0.238183 6.2235 0.0445064C6.35362 0.0278776 6.48421 0.0146724 6.61434 0C6.86606 0 7.11778 0 7.36998 0ZM6.96968 10.8855C8.87701 10.9212 10.4749 9.29744 10.5108 7.28829C10.5463 5.28501 8.98536 3.63241 7.0241 3.5967C5.11062 3.56198 3.51511 5.17448 3.47394 7.18363C3.43278 9.19473 4.99469 10.8488 6.96968 10.8855Z" fill="white"/>
</svg>
