<svg width="23" height="23" viewBox="0 0 23 23" fill="none" xmlns="http://www.w3.org/2000/svg">
<path d="M17.9204 3.20991C17.6171 2.75701 17.4637 2.26191 17.565 1.70718C17.7144 0.889709 18.1811 0.337227 18.9702 0.0981182C19.7525 -0.139303 20.4531 0.0570478 21.006 0.655663C21.5801 1.27791 21.7094 2.0228 21.3843 2.80145C21.0592 3.58123 20.4335 3.98181 19.5936 4.03975C19.5494 4.04257 19.5001 4.05213 19.4604 4.03807C19.1285 3.92161 18.9388 4.10333 18.7312 4.334C17.8135 5.35626 16.879 6.36389 15.9506 7.37715C15.9002 7.43172 15.8521 7.48854 15.8163 7.52962C15.9248 7.79573 16.058 8.04046 16.1257 8.30208C16.4039 9.37272 15.6758 10.5176 14.5964 10.7342C13.4509 10.9643 12.3412 10.1896 12.2058 9.04866C12.1772 8.80842 12.2013 8.55694 12.236 8.31614C12.2545 8.19012 12.2315 8.12879 12.1358 8.05734C11.4481 7.54481 10.7626 7.02946 10.0815 6.50848C9.97018 6.42353 9.8896 6.42184 9.76593 6.48823C9.13526 6.82467 8.4962 6.82523 7.86609 6.48654C7.74018 6.41903 7.66016 6.4269 7.55048 6.51073C6.86889 7.03114 6.18394 7.54706 5.49564 8.05903C5.39771 8.13161 5.37533 8.19462 5.40163 8.31896C5.57622 9.15274 5.32552 9.84813 4.65736 10.364C4.03957 10.8406 3.34063 10.9154 2.6361 10.5941C1.86833 10.2442 1.46486 9.60902 1.45143 8.76454C1.42737 7.24437 3.07706 6.26093 4.40778 6.99064C4.53369 7.05984 4.61372 7.04859 4.72284 6.96532C5.39827 6.44941 6.07706 5.93687 6.75977 5.43052C6.87281 5.34669 6.89687 5.27468 6.86441 5.13403C6.61539 4.05551 7.34959 2.93085 8.4173 2.739C9.57398 2.5314 10.6562 3.29092 10.7889 4.42345C10.818 4.67044 10.7654 4.92643 10.7648 5.17847C10.7648 5.25274 10.7911 5.35626 10.8437 5.3962C11.5415 5.93237 12.2444 6.46235 12.9517 6.98501C13.006 7.02496 13.1229 7.03396 13.1828 7.00245C13.6059 6.78191 14.044 6.68345 14.5197 6.77122C14.5857 6.7836 14.6881 6.75434 14.7323 6.70596C15.7905 5.5588 16.8437 4.40714 17.8969 3.25548C17.9075 3.24704 17.9109 3.23072 17.9204 3.20991Z" fill="#EFB76C"/>
<path d="M21.5419 20.2947C20.2039 20.2947 18.8821 20.2947 17.5273 20.2947C17.5273 20.2153 17.5273 20.1366 17.5273 20.0578C17.5273 16.339 17.5273 12.6201 17.5273 8.90129C17.5273 8.34037 17.7752 8.08776 18.3253 8.0872C19.1513 8.08664 19.9778 8.08495 20.8038 8.08776C21.2716 8.08945 21.5469 8.35781 21.5475 8.82084C21.5492 12.6072 21.5486 16.3936 21.548 20.1793C21.548 20.2092 21.5447 20.239 21.5419 20.2947Z" fill="#EFB76C"/>
<path d="M10.8181 20.3009C9.4734 20.3009 8.15667 20.3009 6.80469 20.3009C6.80469 20.2188 6.80469 20.1406 6.80469 20.0624C6.80469 17.2415 6.80469 14.4211 6.80469 11.6002C6.80469 11.0297 7.05203 10.7822 7.62114 10.7822C8.4471 10.7816 9.27307 10.7793 10.099 10.7833C10.5495 10.7855 10.8243 11.059 10.8243 11.5113C10.8265 14.3919 10.8254 17.2724 10.8248 20.153C10.8259 20.1963 10.8215 20.239 10.8181 20.3009Z" fill="#EFB76C"/>
<path d="M16.1803 20.2952C14.8423 20.2952 13.5205 20.2952 12.1663 20.2952C12.1663 20.2159 12.1663 20.1371 12.1663 20.0583C12.1663 18.1359 12.1657 16.2135 12.1663 14.291C12.1663 13.7312 12.4147 13.4786 12.9654 13.4781C13.7913 13.4775 14.6173 13.4758 15.4433 13.4786C15.9105 13.4803 16.1864 13.7487 16.1864 14.2111C16.1886 16.2011 16.1875 18.191 16.187 20.1804C16.187 20.2097 16.1836 20.2395 16.1803 20.2952Z" fill="#EFB76C"/>
<path d="M1.4435 20.2891C1.4435 20.2159 1.4435 20.1569 1.4435 20.0978C1.4435 18.6018 1.44294 17.1058 1.44406 15.6099C1.44462 15.0844 1.70259 14.8256 2.22582 14.825C3.05178 14.8239 3.87719 14.8234 4.70315 14.825C5.19784 14.8262 5.46364 15.0906 5.4642 15.5851C5.46588 17.0963 5.46476 18.6069 5.46476 20.118C5.46476 20.1698 5.46476 20.221 5.46476 20.2891C4.12621 20.2891 2.7994 20.2891 1.4435 20.2891Z" fill="#EFB76C"/>
<path d="M22.3268 23.0003H0.673195C0.301623 23.0003 0 22.6976 0 22.324C0 21.9505 0.301623 21.6472 0.673195 21.6472H22.3268C22.6984 21.6472 23 21.9505 23 22.324C23 22.6976 22.6984 23.0003 22.3268 23.0003Z" fill="#EFB76C"/>
</svg>
