<svg width="14" height="10" viewBox="0 0 14 10" fill="none" xmlns="http://www.w3.org/2000/svg">
<path fill-rule="evenodd" clip-rule="evenodd" d="M10.4118 2.3854C10.4118 2.3854 10.4118 2.28539 10.4118 2.3854C9.90257 1.88538 9.29147 1.68537 8.68037 1.78538C9.29147 1.68537 9.59702 1.48537 9.69887 1.38536C9.69887 1.28536 9.69887 1.18536 9.59702 1.18536C9.29147 1.18536 8.98592 1.28536 8.78222 1.38536C9.08777 1.18536 9.18962 1.08535 9.18962 0.985352C8.88407 0.985352 8.57852 1.18536 8.17112 1.48537C8.27297 1.28536 8.37482 1.18536 8.27297 1.08535C8.06927 1.18536 7.96742 1.28536 7.86557 1.48537C7.56002 1.78538 7.35632 1.98538 7.25448 2.28539C6.84708 2.98542 6.54153 3.58544 6.33783 4.28546H6.23598C6.03228 3.98545 5.72673 3.68544 5.31933 3.48543C4.91193 3.18542 4.40269 2.98542 3.79159 2.68541C3.18049 2.3854 2.56939 2.08539 1.85644 1.88538C1.85644 2.5854 2.16199 3.18542 2.87494 3.58544C2.67124 3.58544 2.36569 3.58544 2.16199 3.68544C2.16199 4.28546 2.67124 4.78548 3.58789 4.98548C3.28234 4.98548 2.97679 5.08549 2.67124 5.28549C2.97679 5.88551 3.48604 6.08552 4.30084 6.08552C4.19899 6.18552 3.99529 6.28553 3.99529 6.28553C3.89344 6.38553 3.79159 6.58554 3.89344 6.78554C4.09714 7.08555 4.30084 7.18555 4.81008 7.18555C4.09714 7.88558 3.18049 8.28559 2.16199 8.18559C1.55089 8.18559 0.837948 7.88558 0.125 7.28556C0.837948 8.28559 1.85644 9.08562 3.07864 9.58563C4.50453 9.98565 5.93043 10.0857 7.25448 9.68564C8.57852 9.28562 9.80072 8.4856 10.7174 7.38556C11.1248 6.78554 11.4303 6.18552 11.5322 5.5855C12.2451 5.5855 12.7544 5.3855 13.0599 4.98548C12.8562 5.08549 12.347 5.08549 11.634 4.88548C12.347 4.78548 12.8562 4.58547 12.9581 4.18546C12.4488 4.38546 11.9396 4.38546 11.4303 4.18546C11.3285 3.48543 11.0229 2.88541 10.4118 2.3854Z" fill="url(#paint0_linear_34_309)"/>
<defs>
<linearGradient id="paint0_linear_34_309" x1="0.125" y1="4.92881" x2="13.0663" y2="5.21821" gradientUnits="userSpaceOnUse">
<stop stop-color="#8850F4"/>
<stop offset="1" stop-color="#6959FC"/>
</linearGradient>
</defs>
</svg>
